<svg xmlns="http://www.w3.org/2000/svg" width="96" height="96" viewBox="0 0 96 96"><path fill-rule="evenodd" clip-rule="evenodd" fill="#27A5B3" d="M15.407 17.404h66.557c7.425 0 13.446 5.557 13.446 12.407v37.223c0 6.851-6.021 12.407-13.446 12.407H76.72s14.763 15.11 11.698 13.816l-.176-.075-.531-.224-.575-.243-.515-.217-.184-.077-.695-.294-.149-.063-1.649-.696-.661-.279-2.491-1.051-.279-.118-5.852-2.471-.251-.106-2.4-1.013-.814-.344-.496-.21-.684-.288-4.585-1.937-.709-.299-2.673-1.129-.864-.364-2.592-1.095-1.448-.611-.384-.162-.686-.289-.086-.037-.166-.069-.085-.036-.043-.019H15.407c-7.425 0-13.447-5.557-13.447-12.407V29.811c0-6.851 6.022-12.407 13.447-12.407z"/></svg>
