<?xml version="1.0" standalone="no"?><!DOCTYPE svg PUBLIC "-//W3C//DTD SVG 1.1//EN" "http://www.w3.org/Graphics/SVG/1.1/DTD/svg11.dtd" ><svg xmlns="http://www.w3.org/2000/svg"><metadata></metadata><defs><font id="ALLTYPE:Anagram Regular:ATECH" horiz-adv-x="1138"><font-face font-family="Anagram" font-weight="400" font-stretch="normal" units-per-em="1000" panose-1="0 0 0 0 0 0 0 0 0 0" ascent="809" descent="-244" x-height="0" bbox="-59 -200 1140 959" underline-thickness="50" underline-position="-80" unicode-range="U+0020-f002" /><missing-glyph horiz-adv-x="333"  /><glyph glyph-name="space" unicode="  " d="" /><glyph glyph-name="exclam" unicode="!" d="M229 97 q0 -45 -32 -76.5 q-32 -31.5 -77 -31.5 q-45 0 -77 31.5 q-32 31.5 -32 76.5 q0 45 32 77 q32 32 77 32 q45 0 77 -32 q32 -32 32 -77 ZM228 685 l-14 -451 l-189 0 l-13 451 l216 0 Z" /><glyph glyph-name="quotedbl" unicode="&quot;" d="M199 699 l-85 -154 l-104 38 l85 153 l104 -37 ZM349 699 l-85 -154 l-104 38 l85 153 l104 -37 Z" /><glyph glyph-name="numbersign" unicode="#" d="" /><glyph glyph-name="dollar" unicode="$" d="M435 566 l-125 -125 q-10 10 -22 15 q-12 5 -25 4 q-13 0 -24.5 -4.5 q-11.5 -4.5 -21.5 -14.5 q-8 -8 -13 -18.5 q-5 -10.5 -6 -20.5 q0 -3 0 -5 q0 -2 0 -4 q0 -13 4.5 -24.5 q4.5 -11.5 14.5 -21.5 q8 -7 15.5 -14.5 q7.5 -7.5 14.5 -15.5 q20 -20 31.5 -46 q11.5 -26 13.5 -52 q0 -3 0 -5.5 q0 -2.5 0 -5.5 q0 -32 -12.5 -60.5 q-12.5 -28.5 -33.5 -50.5 l0 -96 l-95 0 l0 52 q-3 0 -6.5 0 q-3.5 0 -7.5 0 q-30 0 -58.5 11.5 q-28.5 11.5 -51.5 33.5 l95 94 q-2 2 -5 4.5 q-3 2.5 -5 5.5 q-2 2 -4 4 q-2 2 -4 4 q-3 4 -6 7 q-3 3 -6 6 q-36 35 -53.5 80 q-17.5 45 -17.5 91 q0 3 0 5.5 q0 2.5 0 5.5 q2 44 19.5 86 q17.5 42 51.5 75 q14 14 28.5 25 q14.5 11 30.5 19 l0 85 l95 0 l0 -59 q5 0 10 0.5 q5 0.5 9 0.5 q47 -1 91 -18.5 q44 -17.5 79 -52.5 Z" /><glyph glyph-name="percent" unicode="%" d="" /><glyph glyph-name="ampersand" unicode="&amp;" d="M578 1 l-95 0 q-30 0 -57.5 8.5 q-27.5 8.5 -50.5 23.5 q-27 -18 -59 -28 q-32 -10 -67 -10 q-91 0 -156.5 65 q-65.5 65 -65.5 156 q0 47 17 88.5 q17 41.5 51 74.5 q-10 21 -15 43.5 q-5 22.5 -5 46.5 q0 89 63.5 152.5 q63.5 63.5 151.5 63.5 q62 0 113.5 -32.5 q51.5 -32.5 79.5 -85.5 l-169 -86 q-3 7 -9 11 q-6 4 -12 5 q-1 0 -2 0 q-1 0 -2 0 q-1 0 -3 0 q-2 0 -3 -1 q-3 -1 -6 -2.5 q-3 -1.5 -6 -4.5 q-4 -4 -6 -9.5 q-2 -5.5 -2 -10.5 q0 -9 6 -17 q6 -8 16 -10 l281 0 l0 -189 l-95 0 q0 -13 0 -25.5 q0 -12.5 0 -25.5 q0 -4 4 -8 q4 -4 8 -4 l95 0 l0 -189 ZM282 216 q0 9 0 18 q0 9 0 19 q-8 0 -16.5 0 q-8.5 0 -16.5 0 q-13 0 -23 -8.5 q-10 -8.5 -10 -22.5 q0 -9 1.5 -16 q1.5 -7 8.5 -14 q5 -4 11 -6.5 q6 -2.5 12 -2.5 q13 0 23 9 q10 9 10 24 Z" /><glyph glyph-name="quotesingle" unicode="&#39;" d="M199 699 l-85 -154 l-104 38 l85 153 l104 -37 Z" /><glyph glyph-name="parenleft" unicode="(" d="" /><glyph glyph-name="parenright" unicode=")" d="" /><glyph glyph-name="asterisk" unicode="*" d="M373 492 l-123 28 l86 -92 l-103 -60 l-37 120 l-37 -121 l-104 60 l86 91 l-123 -27 l0 119 l123 -29 l-87 94 l104 60 l36 -122 l37 122 l104 -60 l-87 -93 l125 29 l0 -119 Z" /><glyph glyph-name="plus" unicode="+" d="" /><glyph glyph-name="comma" unicode="," d="M197 180 q20 -16 28.5 -36.5 q8.5 -20.5 8.5 -43.5 q0 -10 -1.5 -19.5 q-1.5 -9.5 -4.5 -19.5 q-15 -52 -59.5 -96.5 q-44.5 -44.5 -94.5 -57.5 l-12 23 l8 9 q6 8 8.5 15.5 q2.5 7.5 2.5 15.5 q0 12 -6 22 q-6 10 -13 18 q-2 1 -3.5 2.5 q-1.5 1.5 -2.5 2.5 q-17 14 -26.5 33.5 q-9.5 19.5 -11.5 40.5 q0 2 0 4 q0 2 0 4 q0 19 6.5 37 q6.5 18 19.5 34 q16 19 38 28.5 q22 9.5 45 9.5 q5 0 9.5 -0.5 q4.5 -0.5 8.5 -1.5 q14 -2 27.5 -8 q13.5 -6 24.5 -16 Z" /><glyph glyph-name="hyphen" unicode="-" d="M223 280 l-212 0 l0 145 l212 0 l0 -145 Z" /><glyph glyph-name="period" unicode="." d="M229 97 q0 -45 -32 -76.5 q-32 -31.5 -77 -31.5 q-45 0 -77 31.5 q-32 31.5 -32 76.5 q0 45 32 77 q32 32 77 32 q45 0 77 -32 q32 -32 32 -77 Z" /><glyph glyph-name="slash" unicode="/" d="M349 785 l-330 -980 l-78 0 l330 980 l78 0 Z" /><glyph glyph-name="zero" unicode="0" d="M769 343 q0 -151 -107.5 -258.5 q-107.5 -107.5 -258.5 -107.5 q-151 0 -258.5 107.5 q-107.5 107.5 -107.5 258.5 q0 151 107.5 258.5 q107.5 107.5 258.5 107.5 q151 0 258.5 -107.5 q107.5 -107.5 107.5 -258.5 ZM557 343 q0 63 -45.5 108 q-45.5 45 -108.5 45 q-64 0 -109 -45 q-45 -45 -45 -108 q0 -64 45 -109 q45 -45 109 -45 q63 0 108.5 45 q45.5 45 45.5 109 Z" /><glyph glyph-name="one" unicode="1" d="M324 0 l-212 0 l0 472 l-97 0 l0 212 l309 0 l0 -684 Z" /><glyph glyph-name="two" unicode="2" d="M586 0 l-519 0 q69 103 138 206.5 q69 103.5 137 206.5 q2 3 3 6 q1 3 1 7 q1 3 1 5.5 q0 2.5 0 4.5 q0 22 -15.5 37.5 q-15.5 15.5 -38.5 15.5 q-22 0 -37.5 -15.5 q-15.5 -15.5 -15.5 -37.5 l-212 0 q0 110 78 187.5 q78 77.5 187 77.5 q115 0 191 -81.5 q76 -81.5 75 -186.5 q0 -17 -2 -34.5 q-2 -17.5 -7 -34.5 q-9 -32 -26.5 -61.5 q-17.5 -29.5 -37.5 -57.5 q-6 -8 -11.5 -16.5 q-5.5 -8.5 -11.5 -16.5 l123 0 l0 -212 Z" /><glyph glyph-name="three" unicode="3" d="M413 225 q0 -92 -66 -158.5 q-66 -66.5 -160 -66.5 q-20 0 -40 0 q-20 0 -40 0 q-21 0 -41 0 q-20 0 -40 0 l0 212 l161 0 q7 0 10.5 4.5 q3.5 4.5 2.5 9.5 q0 5 -3 9 q-3 4 -10 4 l-113 0 l-1 213 l107 0 q5 0 6.5 2.5 q1.5 2.5 1.5 6.5 q0 4 -2 7 q-2 3 -7 3 l-158 0 l0 212 q20 0 39.5 0 q19.5 0 39.5 0 q20 0 39.5 0 q19.5 0 39.5 0 q92 0 157 -65 q65 -65 65 -156 q0 -29 -7.5 -56.5 q-7.5 -27.5 -21.5 -51.5 q20 -28 30.5 -60.5 q10.5 -32.5 10.5 -68.5 Z" /><glyph glyph-name="four" unicode="4" d="M637 105 l-20 0 l0 -105 l-213 0 l0 105 l-374 0 l240 517 l134 -61 l0 124 l213 0 l0 -368 l20 0 l0 -212 ZM404 317 l0 91 l-42 -91 l42 0 Z" /><glyph glyph-name="five" unicode="5" d="M458 473 l-106 0 l-102 0 l0 -23 q91 -25 148.5 -101 q57.5 -76 57.5 -171 q0 -124 -91.5 -208 q-91.5 -84 -214.5 -74 q-2 0 -8 1 q-6 1 -15 3 q-26 4 -52.5 8 q-26.5 4 -52.5 9 l35 208 q13 -2 26 -4.5 q13 -2.5 26 -4.5 q13 -2 26 -4 q13 -2 26 -4 q3 -1 6 -1 q3 0 6 0 q31 0 51 22 q20 22 20 50 q0 13 -5 25.5 q-5 12.5 -16 22.5 q-10 10 -23 15.5 q-13 5.5 -27 5.5 q-34 0 -67.5 0 q-33.5 0 -67.5 0 l0 437 l420 0 l0 -212 Z" /><glyph glyph-name="six" unicode="6" d="M545 251 q0 -106 -76 -182.5 q-76 -76.5 -183 -76.5 q-107 0 -183.5 76 q-76.5 76 -76.5 183 q0 36 9.5 69.5 q9.5 33.5 26.5 61.5 q0 0 42 72.5 q42 72.5 93 158.5 q10 18 21 36.5 q11 18.5 21 35.5 l245 0 l-110 -190 q74 -27 122.5 -93.5 q48.5 -66.5 48.5 -150.5 ZM319 284 q-5 5 -10.5 8 q-5.5 3 -11.5 5 q-3 0 -5.5 0.5 q-2.5 0.5 -5.5 0.5 q-12 0 -22.5 -5.5 q-10.5 -5.5 -17.5 -15.5 l-1 -2 q-3 -5 -5 -11 q-2 -6 -2 -13 q0 -19 14.5 -33 q14.5 -14 33.5 -14 q21 0 33.5 15 q12.5 15 12.5 33 q0 2 0 4 q0 2 -1 4 q-1 7 -4 13 q-3 6 -8 11 Z" /><glyph glyph-name="seven" unicode="7" d="M564 685 l-339 -729 l-192 89 l199 428 l-205 0 l0 212 l537 0 Z" /><glyph glyph-name="eight" unicode="8" d="M545 251 q0 -106 -76 -182.5 q-76 -76.5 -183 -76.5 q-107 0 -183.5 76 q-76.5 76 -76.5 183 q0 52 19 98 q19 46 52 80 q-5 15 -8 31.5 q-3 16.5 -3 32.5 q0 83 59 141.5 q59 58.5 141 58.5 q82 0 140.5 -58.5 q58.5 -58.5 58.5 -141.5 q0 -16 -3 -32.5 q-3 -16.5 -8 -31.5 q33 -34 52 -80 q19 -46 19 -98 ZM319 284 q-7 8 -16 11 q-9 3 -18 3 q-18 0 -32.5 -13 q-14.5 -13 -14.5 -34 q0 -19 14.5 -33 q14.5 -14 33.5 -14 q21 0 33.5 15 q12.5 15 12.5 33 q0 2 0 4 q0 2 -1 4 q-1 7 -4 13 q-3 6 -8 11 ZM309 517 q-5 5 -11 7.5 q-6 2.5 -13 2.5 q-13 0 -23 -9.5 q-10 -9.5 -10 -24.5 q0 -13 10 -23.5 q10 -10.5 24 -10.5 q15 0 24 11 q9 11 9 24 q0 6 -2.5 12 q-2.5 6 -7.5 11 Z" /><glyph glyph-name="nine" unicode="9" d="M545 448 q0 -36 -9.5 -69.5 q-9.5 -33.5 -26.5 -62.5 q0 0 -42 -71.5 q-42 -71.5 -92 -158.5 q-26 -45 -51.5 -87.5 q-25.5 -42.5 -44.5 -75.5 l-194 88 l113 192 q-75 28 -123.5 94.5 q-48.5 66.5 -48.5 150.5 q0 107 76 183 q76 76 184 76 q107 0 183 -76 q76 -76 76 -183 ZM333 448 q0 20 -14 33.5 q-14 13.5 -33 13.5 q-22 0 -35 -15 q-13 -15 -12 -34 q0 -2 0 -4 q0 -2 1 -4 q1 -7 4 -13 q3 -6 8 -11 q5 -4 10.5 -7.5 q5.5 -3.5 11.5 -4.5 q3 -1 5.5 -1 q2.5 0 5.5 0 q12 0 22.5 5 q10.5 5 17.5 15 l1 2 q3 5 5 11.5 q2 6.5 2 13.5 Z" /><glyph glyph-name="colon" unicode=":" d="M229 97 q0 -45 -32 -76.5 q-32 -31.5 -77 -31.5 q-45 0 -77 31.5 q-32 31.5 -32 76.5 q0 45 32 77 q32 32 77 32 q45 0 77 -32 q32 -32 32 -77 ZM229 347 q0 -45 -32 -77 q-32 -32 -77 -32 q-45 0 -77 32 q-32 32 -32 77 q0 45 32 77 q32 32 77 32 q45 0 77 -32 q32 -32 32 -77 Z" /><glyph glyph-name="semicolon" unicode=";" d="M197 180 q20 -16 28.5 -36.5 q8.5 -20.5 8.5 -43.5 q0 -10 -1.5 -19.5 q-1.5 -9.5 -4.5 -19.5 q-15 -52 -59.5 -96.5 q-44.5 -44.5 -94.5 -57.5 l-12 23 l8 9 q6 8 8.5 15.5 q2.5 7.5 2.5 15.5 q0 12 -6 22 q-6 10 -13 18 q-2 1 -3.5 2.5 q-1.5 1.5 -2.5 2.5 q-17 14 -26.5 33.5 q-9.5 19.5 -11.5 40.5 q0 2 0 4 q0 2 0 4 q0 19 6.5 37 q6.5 18 19.5 34 q16 19 38 28.5 q22 9.5 45 9.5 q5 0 9.5 -0.5 q4.5 -0.5 8.5 -1.5 q14 -2 27.5 -8 q13.5 -6 24.5 -16 ZM229 347 q0 -45 -32 -77 q-32 -32 -77 -32 q-45 0 -77 32 q-32 32 -32 77 q0 45 32 77 q32 32 77 32 q45 0 77 -32 q32 -32 32 -77 Z" /><glyph glyph-name="less" unicode="&lt;" d="M379 111 l-375 217 l0 57 l375 217 l0 -92 l-250 -154 l250 -154 l0 -91 Z" /><glyph glyph-name="equal" unicode="=" d="M400 257 l-405 0 l0 76 l405 0 l0 -76 ZM400 407 l-405 0 l0 76 l405 0 l0 -76 Z" /><glyph glyph-name="greater" unicode="&gt;" d="M381 328 l-375 -217 l0 91 l251 154 l-251 154 l0 92 l375 -217 l0 -57 Z" /><glyph glyph-name="question" unicode="?" d="M407 591 q18 -27 27 -57 q9 -30 9 -61 q0 -37 -13 -73.5 q-13 -36.5 -39 -66.5 q-19 -22 -38.5 -44.5 q-19.5 -22.5 -39.5 -44.5 q-2 -2 -4 -4 q-2 -2 -4 -4 q-2 -3 -4 -6.5 q-2 -3.5 -2 -8.5 q0 -7 0 -11 q0 -4 0 -7 q0 -3 0 -7 q0 -4 0 -11 l-38 0 q20 -15 32.5 -38 q12.5 -23 12.5 -50 q0 -45 -32 -76.5 q-32 -31.5 -77 -31.5 q-45 0 -77 31.5 q-32 31.5 -32 76.5 q0 27 12 50 q12 23 32 38 l-45 0 q0 14 0 27.5 q0 13.5 0 26.5 q0 53 21.5 86 q21.5 33 46.5 61 q13 14 25.5 28.5 q12.5 14.5 24.5 28.5 q6 7 12.5 14.5 q6.5 7.5 12.5 14.5 l-202 -55 q-4 14 -5.5 27.5 q-1.5 13.5 -1.5 26.5 q0 52 24.5 99 q24.5 47 68.5 77 q27 19 57 27.5 q30 8.5 61 8.5 q51 0 98 -23.5 q47 -23.5 77 -68.5 ZM233 471 q0 1 -0.5 0.5 q-0.5 -0.5 -0.5 -0.5 q0 0 -0.5 0 q-0.5 0 -0.5 0 q0 0 0 0 q0 0 0 1 q2 1 2 1 q0 0 0 -1 q0 0 0 0 q0 0 0 0 q0 -1 0 -1 q0 0 0 0 Z" /><glyph glyph-name="at" unicode="@" d="M630 695 l-243 -718 q-14 -42 -51 -67.5 q-37 -25.5 -80 -25.5 q-4 0 -8.5 0.5 q-4.5 0.5 -8.5 0.5 q-5 1 -9 2 q-4 1 -9 2 l8 35 q6 -1 12 -1.5 q6 -0.5 12 -0.5 q33 0 60.5 20.5 q27.5 20.5 37.5 50.5 l218 642 q-13 -5 -27 -7.5 q-14 -2.5 -28 -2.5 q-34 0 -70 11 q-36 11 -72 25 q-3 2 -6.5 3 q-3.5 1 -6.5 3 q-39 15 -77.5 27.5 q-38.5 12.5 -74.5 13.5 q-9 0 -25.5 -1 q-16.5 -1 -35.5 -7 q-19 -6 -36 -19.5 q-17 -13.5 -25 -37.5 q-2 -7 -3.5 -14.5 q-1.5 -7.5 -1.5 -14.5 q1 -26 15.5 -48 q14.5 -22 43.5 -30 l-8 -37 q-43 11 -65.5 45 q-22.5 34 -22.5 74 q0 5 0.5 10 q0.5 5 1.5 10 q0 5 1.5 10 q1.5 5 2.5 10 q17 50 54.5 69 q37.5 19 82.5 19 q12 0 24 -1 q12 -1 24 -3 q32 -5 62.5 -14.5 q30.5 -9.5 57.5 -19.5 q9 -4 21.5 -8.5 q12.5 -4.5 26.5 -9.5 q15 -5 31.5 -10 q16.5 -5 33.5 -9 q13 -3 26.5 -4.5 q13.5 -1.5 25.5 -1.5 q26 0 46.5 9.5 q20.5 9.5 28.5 34.5 l36 -14 ZM896 179 l-154 -81 q6 -2 12 -3.5 q6 -1.5 13 -1.5 q2 0 4.5 0 q2.5 0 4.5 1 q24 2 45 16.5 q21 14.5 32 32.5 l33 -21 q-17 -28 -49.5 -47.5 q-32.5 -19.5 -67.5 -19.5 q-4 0 -8.5 0.5 q-4.5 0.5 -8.5 1.5 q-4 0 -8.5 1.5 q-4.5 1.5 -8.5 2.5 q-27 9 -39 25.5 q-12 16.5 -12 35.5 q0 5 1 10 q1 5 2 10 q10 36 46 65.5 q36 29.5 80 29.5 q5 0 9 -0.5 q4 -0.5 9 -0.5 q4 -1 8.5 -2 q4.5 -1 8.5 -3 q4 -2 11 -6.5 q7 -4.5 15 -12.5 q6 -6 12 -14.5 q6 -8.5 10 -18.5 ZM841 194 q0 0 -0.5 0.5 q-0.5 0.5 -0.5 0.5 q-1 0 -1.5 0.5 q-0.5 0.5 -0.5 0.5 q-5 2 -10.5 2.5 q-5.5 0.5 -10.5 0.5 q-4 0 -7.5 -0.5 q-3.5 -0.5 -6.5 -0.5 q-27 -5 -50.5 -23.5 q-23.5 -18.5 -28.5 -41.5 l117 61 ZM755 678 q-3 0 -6.5 -0.5 q-3.5 -0.5 -6.5 -1.5 q-14 -4 -26.5 -15.5 q-12.5 -11.5 -17.5 -25.5 l-147 -436 q2 2 5 4 q3 2 5 4 q11 8 23.5 15 q12.5 7 24.5 10 q5 2 9.5 2.5 q4.5 0.5 8.5 0.5 q13 0 22.5 -5 q9.5 -5 16.5 -15 q8 -10 10.5 -23 q2.5 -13 2.5 -27 q0 -4 0 -7.5 q0 -3.5 -1 -7.5 q-1 -15 -4 -29 q-3 -14 -7 -26 q-2 -9 -4.5 -16 q-2.5 -7 -4.5 -12 l-36 15 q2 4 4 10 q2 6 4 12 q3 8 5 17 q2 9 4 19 q2 7 2.5 15 q0.5 8 0.5 15 q0 8 -1.5 14.5 q-1.5 6.5 -4.5 10.5 q-1 1 -2 1.5 q-1 0.5 -4 0.5 q-6 0 -12 -1.5 q-6 -1.5 -12 -4.5 q-21 -9 -40.5 -30 q-19.5 -21 -34.5 -45 q-9 -13 -15 -25.5 q-6 -12.5 -10 -23.5 l-37 15 l193 568 q10 26 35.5 45.5 q25.5 19.5 54.5 19.5 l3 -37 Z" /><glyph glyph-name="A" unicode="a" d="M923 0 l-246 0 l-34 59 l-309 0 l-35 -59 l-245 0 l186 322 q15 26 26.5 59.5 q11.5 33.5 16.5 68.5 q1 10 1.5 19 q0.5 9 0.5 18 q0 53 -25 96 q-25 43 -89 54 q-5 1 -10.5 1.5 q-5.5 0.5 -10.5 0.5 q-2 0 -4.5 0 q-2.5 0 -5.5 0 q-9 -2 -18.5 -5 q-9.5 -3 -17.5 -9 q-11 -9 -18.5 -24 q-7.5 -15 -8.5 -32 q-1 -2 -1 -4.5 q0 -2.5 0 -4.5 q0 -20 10.5 -36 q10.5 -16 34.5 -18 q11 -1 17 5.5 q6 6.5 6 15.5 q0 2 -0.5 4.5 q-0.5 2.5 -1.5 5.5 q0 2 -1.5 4.5 q-1.5 2.5 -3.5 4.5 q-4 5 -6 10.5 q-2 5.5 -2 10.5 q0 12 9 20.5 q9 8.5 21 8.5 q2 0 4 -0.5 q2 -0.5 4 -0.5 q4 -2 8.5 -4.5 q4.5 -2.5 7.5 -6.5 q8 -10 13 -20.5 q5 -10.5 6 -21.5 q1 -3 1 -6.5 q0 -3.5 0 -7.5 q0 -33 -23 -57.5 q-23 -24.5 -62 -23.5 q-51 3 -76.5 38.5 q-25.5 35.5 -25.5 78.5 q0 3 0 6 q0 3 1 6 q2 28 14.5 54 q12.5 26 35.5 43 q21 16 44 23.5 q23 7.5 47 7.5 q6 0 12 -0.5 q6 -0.5 12 -1.5 q5 -1 11 -2 q6 -1 12 -3 q69 -18 104.5 -65.5 q35.5 -47.5 45.5 -109.5 l133 232 l435 -754 ZM520 272 l-32 56 l-32 -56 l64 0 Z" /><glyph glyph-name="B" unicode="b" d="M568 228 q0 -94 -67 -161 q-67 -67 -161 -67 l-340 0 l0 684 l331 0 q45 0 85 -17.5 q40 -17.5 70 -47.5 q30 -30 47.5 -70 q17.5 -40 17.5 -85 q0 -28 -6.5 -54.5 q-6.5 -26.5 -19.5 -49.5 q20 -28 31.5 -61.5 q11.5 -33.5 11.5 -70.5 ZM355 228 q0 6 -4.5 10.5 q-4.5 4.5 -10.5 4.5 l-58 0 l-48 0 l0 213 l97 0 q3 0 5.5 2 q2.5 2 2.5 6 q0 2 -0.5 3 q-0.5 1 -1.5 2 q-1 1 -2.5 1.5 q-1.5 0.5 -3.5 0.5 l-118 0 l0 -259 l127 0 q6 0 10.5 4.5 q4.5 4.5 4.5 11.5 Z" /><glyph glyph-name="C" unicode="c" d="M461 -13 q-21 -4 -42.5 -7 q-21.5 -3 -43.5 -3 q-151 0 -258.5 107.5 q-107.5 107.5 -107.5 258.5 q0 151 107.5 258.5 q107.5 107.5 258.5 107.5 q22 0 43.5 -3 q21.5 -3 42.5 -8 l-50 -206 q-9 2 -18 3 q-9 1 -17 1 q-61 0 -108 -44 q-47 -44 -47 -109 q0 -66 47 -110.5 q47 -44.5 108 -43.5 q5 0 9 0 q4 0 9 1 q4 0 8.5 1 q4.5 1 8.5 2 l50 -206 Z" /><glyph glyph-name="D" unicode="d" d="M630 342 q0 -141 -100.5 -241.5 q-100.5 -100.5 -241.5 -100.5 l-279 0 l0 684 q70 0 139.5 0 q69.5 0 139.5 0 q141 0 241.5 -100.5 q100.5 -100.5 100.5 -241.5 ZM380 250 q20 20 29 43.5 q9 23.5 9 47.5 q0 50 -35.5 90 q-35.5 40 -94.5 40 l-67 0 l0 -259 q5 0 10 0 q5 0 11 0 q37 -1 72.5 3.5 q35.5 4.5 65.5 34.5 Z" /><glyph glyph-name="E" unicode="e" d="M508 235 l-292 0 l0 -23 l211 0 l0 -212 l-424 0 l0 684 l424 0 l0 -213 l-211 0 l0 -23 l292 0 l0 -213 Z" /><glyph glyph-name="F" unicode="f" d="M508 236 l-292 0 l0 -236 l-213 0 l0 685 l424 0 l0 -213 l-211 0 l0 -23 l292 0 l0 -213 Z" /><glyph glyph-name="G" unicode="g" d="M665 530 l-184 -106 q-19 33 -51.5 52 q-32.5 19 -71.5 19 q-58 0 -100 -41 q-42 -41 -42 -100 q0 -58 42 -100 q42 -42 100 -42 q6 0 11.5 0 q5.5 0 11.5 0 q6 0 11.5 0 q5.5 0 11.5 0 l0 153 l212 0 l0 -365 q-64 0 -128.5 0 q-64.5 0 -129.5 0 q-146 0 -250 104 q-104 104 -104 250 q0 146 104 250 q104 104 250 104 q95 0 177.5 -48 q82.5 -48 129.5 -130 Z" /><glyph glyph-name="H" unicode="h" d="M576 0 l-213 0 l0 236 l-144 0 l0 -236 l-213 0 l0 685 l213 0 l0 -236 l144 0 l0 236 l213 0 l0 -685 Z" /><glyph glyph-name="I" unicode="i" d="M223 0 l-212 0 l0 685 l212 0 l0 -685 Z" /><glyph glyph-name="J" unicode="j" d="M355 295 q0 -145 -102.5 -249 q-102.5 -104 -248.5 -104 l0 212 q59 0 98.5 41.5 q39.5 41.5 39.5 99.5 l0 390 l213 0 q0 -97 0 -194.5 q0 -97.5 0 -195.5 Z" /><glyph glyph-name="K" unicode="k" d="M617 136 l-150 -150 l-249 249 l0 -235 l-212 0 l0 685 l212 0 l0 -227 l249 249 l150 -150 l-210 -210 l210 -211 Z" /><glyph glyph-name="L" unicode="l" d="M362 0 l-358 0 l0 684 l212 0 l0 -472 l146 0 l0 -212 Z" /><glyph glyph-name="M" unicode="m" d="M1130 0 l-242 0 l-152 273 q-21 -40 -42.5 -79.5 q-21.5 -39.5 -43.5 -79.5 q-22 -40 -43.5 -79 q-21.5 -39 -42.5 -78 l-173 316 l-151 -273 l-242 0 l395 713 l171 -314 l170 314 l396 -713 Z" /><glyph glyph-name="N" unicode="n" d="M694 -83 l-476 377 l0 -294 l-213 0 l0 732 l476 -376 l0 329 l213 0 l0 -768 Z" /><glyph glyph-name="O" unicode="o" d="M737 343 q0 -151 -107.5 -258.5 q-107.5 -107.5 -258.5 -107.5 q-151 0 -258.5 107.5 q-107.5 107.5 -107.5 258.5 q0 151 107.5 258.5 q107.5 107.5 258.5 107.5 q151 0 258.5 -107.5 q107.5 -107.5 107.5 -258.5 ZM525 343 q0 63 -45.5 108 q-45.5 45 -108.5 45 q-64 0 -109 -45 q-45 -45 -45 -108 q0 -64 45 -109 q45 -45 109 -45 q63 0 108.5 45 q45.5 45 45.5 109 Z" /><glyph glyph-name="P" unicode="p" d="M640 391 q0 -121 -86 -207 q-86 -86 -208 -86 l-124 0 l0 -98 l-213 0 l0 685 l337 0 q122 0 208 -86 q86 -86 86 -208 ZM427 391 q0 34 -23.5 57.5 q-23.5 23.5 -57.5 23.5 l-124 0 l0 -162 l124 0 q34 0 57.5 24 q23.5 24 23.5 57 Z" /><glyph glyph-name="Q" unicode="q" d="M744 343 q0 -47 -11.5 -91 q-11.5 -44 -32.5 -83 q21 -37 32 -80 q11 -43 11 -89 l-141 0 q0 13 -1.5 25 q-1.5 12 -4.5 24 q-46 -34 -101.5 -53 q-55.5 -19 -116.5 -19 q-151 0 -258.5 107.5 q-107.5 107.5 -107.5 258.5 q0 151 107.5 258.5 q107.5 107.5 258.5 107.5 q151 0 258.5 -107.5 q107.5 -107.5 107.5 -258.5 ZM532 343 q0 63 -45.5 108 q-45.5 45 -108.5 45 q-64 0 -109 -45 q-45 -45 -45 -108 q0 -64 45 -109 q45 -45 109 -45 q18 0 35 4 q17 4 33 12 q-13 4 -27.5 5.5 q-14.5 1.5 -28.5 1.5 l0 142 q38 0 73 -8 q35 -8 67 -22 q1 5 1.5 9.5 q0.5 4.5 0.5 9.5 Z" /><glyph glyph-name="R" unicode="r" d="M654 218 l-117 -245 q-10 1 -20.5 1.5 q-10.5 0.5 -20.5 1.5 q-21 1 -41.5 4.5 q-20.5 3.5 -40.5 9.5 q-54 13 -104 40.5 q-50 27.5 -92 67.5 l-2 0 l0 -98 l-212 0 l0 687 l336 -2 q122 -1 208 -86.5 q86 -85.5 86 -207.5 q0 -60 -23 -112.5 q-23 -52.5 -62 -92.5 q27 2 53.5 10 q26.5 8 51.5 22 ZM421 391 q0 34 -23.5 57.5 q-23.5 23.5 -57.5 23.5 l-124 0 l0 -162 l124 0 q34 0 57.5 24 q23.5 24 23.5 57 Z" /><glyph glyph-name="S" unicode="s" d="M456 685 l-189 -189 q-6 -6 -10 -14.5 q-4 -8.5 -6 -17.5 q0 -2 0 -3.5 q0 -1.5 0 -3.5 q0 -11 4 -21.5 q4 -10.5 12 -18.5 l34 -34 q37 -37 57 -83 q20 -46 22 -95 q0 -2 0 -5 q0 -3 0 -6 q0 -52 -19.5 -101.5 q-19.5 -49.5 -59.5 -88.5 l-3 -3 l-300 0 l153 153 q8 8 12 18.5 q4 10.5 4 21.5 q0 2 0 3.5 q0 1.5 0 3.5 q-1 9 -5 17.5 q-4 8.5 -11 14.5 l-33 34 q-40 39 -59.5 88.5 q-19.5 49.5 -19.5 101.5 q0 3 0 6 q0 3 0 6 q2 48 21.5 94.5 q19.5 46.5 56.5 83.5 l38 38 l301 0 Z" /><glyph glyph-name="T" unicode="t" d="M520 473 l-149 0 l0 -473 l-212 0 l0 473 l-149 0 l0 212 l510 0 l0 -212 Z" /><glyph glyph-name="U" unicode="u" d="M571 267 q0 -115 -82 -196.5 q-82 -81.5 -198 -81.5 q-57 0 -108.5 21.5 q-51.5 21.5 -89.5 59.5 q-38 38 -60.5 88.5 q-22.5 50.5 -22.5 108.5 l0 418 l212 0 l0 -418 q0 -13 5.5 -25.5 q5.5 -12.5 14.5 -21.5 q10 -9 22.5 -14.5 q12.5 -5.5 26.5 -5.5 q28 0 47.5 19.5 q19.5 19.5 19.5 47.5 l0 418 l213 0 l0 -418 Z" /><glyph glyph-name="V" unicode="v" d="M836 685 l-419 -727 l-419 727 l245 0 l174 -302 l173 302 l246 0 Z" /><glyph glyph-name="W" unicode="w" d="M1140 685 l-401 -723 l-170 315 l-171 -315 l-400 723 l242 0 l156 -283 l173 318 l172 -318 l157 283 l242 0 Z" /><glyph glyph-name="X" unicode="x" d="M591 -1 l-237 0 l-58 116 l-58 -116 l-237 0 l176 351 l-168 334 l237 0 l50 -98 l50 98 l237 0 l-168 -334 l176 -351 Z" /><glyph glyph-name="Y" unicode="y" d="M702 685 l-244 -424 l0 -261 l-212 0 l0 261 l-244 424 l245 0 l105 -182 l105 182 l245 0 Z" /><glyph glyph-name="Z" unicode="z" d="M643 684 l-272 -472 l142 0 l-102 -212 l-408 0 l272 471 l-245 0 l0 213 l613 0 Z" /><glyph glyph-name="bracketleft" unicode="[" d="" /><glyph glyph-name="backslash" unicode="\" d="M4 785 l78 0 l330 -980 l-78 0 l-330 980 Z" /><glyph glyph-name="bracketright" unicode="]" d="" /><glyph glyph-name="asciicircum" unicode="^" d="" /><glyph glyph-name="underscore" unicode="_" d="M604 -90 l-608 0 l0 65 l608 0 l0 -65 Z" /><glyph glyph-name="grave" unicode="`" d="M261 656 l-12 -39 l-219 69 l38 123 l193 -153 Z" /><glyph glyph-name="a" unicode="a" d="M870 0 l-245 0 l-35 59 l-309 0 l-34 -59 l-246 0 l343 594 l92 160 l92 -160 l41 -72 q10 62 45.5 109.5 q35.5 47.5 104.5 65.5 q12 3 24 5 q12 2 23 2 q24 0 46.5 -7.5 q22.5 -7.5 44.5 -23.5 q24 -18 37 -45.5 q13 -27.5 14 -57.5 q0 -2 0 -3.5 q0 -1.5 0 -3.5 q0 -43 -25.5 -78.5 q-25.5 -35.5 -76.5 -37.5 q-39 -1 -62.5 24 q-23.5 25 -23.5 57 q0 4 0.5 7.5 q0.5 3.5 0.5 6.5 q2 11 7 21.5 q5 10.5 13 20.5 q5 7 11.5 9.5 q6.5 2.5 13.5 2.5 q11 0 20 -8.5 q9 -8.5 9 -20.5 q0 -5 -2 -10.5 q-2 -5.5 -7 -10.5 q-4 -4 -5.5 -9.5 q-1.5 -5.5 -1.5 -10.5 q1 -8 7 -14.5 q6 -6.5 17 -5.5 q24 2 34.5 18 q10.5 16 10.5 37 q0 1 0 2.5 q0 1.5 0 2.5 q-1 18 -8.5 34 q-7.5 16 -19.5 25 q-10 8 -22 11 q-12 3 -25 3 q-5 0 -10 -0.5 q-5 -0.5 -10 -1.5 q-60 -10 -85.5 -51 q-25.5 -41 -25.5 -97 q0 -20 3 -41 q3 -21 8 -43 q5 -21 13 -42 q8 -21 18 -41 l186 -322 ZM468 272 l-32 56 l-33 -56 l65 0 Z" /><glyph glyph-name="b" unicode="b" d="M568 228 q0 -94 -67 -161 q-67 -67 -161 -67 l-340 0 l0 684 l331 0 q45 0 85 -17.5 q40 -17.5 70 -47.5 q30 -30 47.5 -70 q17.5 -40 17.5 -85 q0 -28 -6.5 -54.5 q-6.5 -26.5 -19.5 -49.5 q20 -28 31.5 -61.5 q11.5 -33.5 11.5 -70.5 ZM355 228 q0 6 -4.5 10.5 q-4.5 4.5 -10.5 4.5 l-58 0 l-48 0 l0 213 l97 0 q3 0 5.5 2 q2.5 2 2.5 6 q0 2 -0.5 3 q-0.5 1 -1.5 2 q-1 1 -2.5 1.5 q-1.5 0.5 -3.5 0.5 l-118 0 l0 -259 l127 0 q6 0 10.5 4.5 q4.5 4.5 4.5 11.5 Z" /><glyph glyph-name="c" unicode="c" d="M461 -13 q-21 -4 -42.5 -7 q-21.5 -3 -43.5 -3 q-151 0 -258.5 107.5 q-107.5 107.5 -107.5 258.5 q0 151 107.5 258.5 q107.5 107.5 258.5 107.5 q22 0 43.5 -3 q21.5 -3 42.5 -8 l-50 -206 q-9 2 -18 3 q-9 1 -17 1 q-61 0 -108 -44 q-47 -44 -47 -109 q0 -66 47 -110.5 q47 -44.5 108 -43.5 q5 0 9 0 q4 0 9 1 q4 0 8.5 1 q4.5 1 8.5 2 l50 -206 Z" /><glyph glyph-name="d" unicode="d" d="M630 342 q0 -141 -100.5 -241.5 q-100.5 -100.5 -241.5 -100.5 l-279 0 l0 684 q70 0 139.5 0 q69.5 0 139.5 0 q141 0 241.5 -100.5 q100.5 -100.5 100.5 -241.5 ZM380 250 q20 20 29 43.5 q9 23.5 9 47.5 q0 50 -35.5 90 q-35.5 40 -94.5 40 l-67 0 l0 -259 q5 0 10 0 q5 0 11 0 q37 -1 72.5 3.5 q35.5 4.5 65.5 34.5 Z" /><glyph glyph-name="e" unicode="e" d="M508 235 l-292 0 l0 -23 l211 0 l0 -212 l-424 0 l0 684 l424 0 l0 -213 l-211 0 l0 -23 l292 0 l0 -213 Z" /><glyph glyph-name="f" unicode="f" d="M508 236 l-292 0 l0 -236 l-213 0 l0 685 l424 0 l0 -213 l-211 0 l0 -23 l292 0 l0 -213 Z" /><glyph glyph-name="g" unicode="g" d="M685 535 l-158 -166 q-4 26 -18 49.5 q-14 23.5 -34 40.5 q-20 17 -45.5 27 q-25.5 10 -54.5 10 q-64 0 -109 -45 q-45 -45 -45 -109 q0 -43 21.5 -78 q21.5 -35 55.5 -55 l0 125 l274 0 l0 -212 l-61 0 l0 -133 l-94 -10 q-5 0 -9.5 -0.5 q-4.5 -0.5 -7.5 -0.5 q-1 0 -2 -0.5 q-1 -0.5 -2 -0.5 q-4 0 -9 0 q-5 0 -12 0 q-151 0 -258.5 107 q-107.5 107 -107.5 258 q0 152 107.5 259 q107.5 107 258.5 107 q68 0 128.5 -23.5 q60.5 -23.5 109.5 -64.5 q21 -18 39.5 -39.5 q18.5 -21.5 32.5 -45.5 Z" /><glyph glyph-name="h" unicode="h" d="M576 0 l-213 0 l0 236 l-144 0 l0 -236 l-213 0 l0 685 l213 0 l0 -236 l144 0 l0 236 l213 0 l0 -685 Z" /><glyph glyph-name="i" unicode="i" d="M223 0 l-212 0 l0 685 l212 0 l0 -685 Z" /><glyph glyph-name="j" unicode="j" d="M355 295 q0 -145 -102.5 -249 q-102.5 -104 -248.5 -104 l0 212 q59 0 98.5 41.5 q39.5 41.5 39.5 99.5 l0 390 l213 0 q0 -97 0 -194.5 q0 -97.5 0 -195.5 Z" /><glyph glyph-name="k" unicode="k" d="M617 136 l-150 -150 l-249 249 l0 -235 l-212 0 l0 685 l212 0 l0 -227 l249 249 l150 -150 l-210 -210 l210 -211 Z" /><glyph glyph-name="l" unicode="l" d="M362 0 l-358 0 l0 684 l212 0 l0 -472 l146 0 l0 -212 Z" /><glyph glyph-name="m" unicode="m" d="M741 0 l-212 0 l0 194 l-159 -213 l-154 211 l0 -192 l-212 0 l0 729 l367 -421 l370 419 l0 -727 Z" /><glyph glyph-name="n" unicode="n" d="M694 -83 l-476 377 l0 -294 l-213 0 l0 732 l476 -376 l0 329 l213 0 l0 -768 Z" /><glyph glyph-name="o" unicode="o" d="M650 382 q0 -133 -94.5 -227 q-94.5 -94 -227.5 -94 q-133 0 -227 94 q-94 94 -94 227 q0 133 94 227 q94 94 227 94 q133 0 227.5 -94 q94.5 -94 94.5 -227 ZM437 382 q0 45 -32 77 q-32 32 -77 32 q-45 0 -76.5 -32 q-31.5 -32 -31.5 -77 q0 -45 31.5 -77 q31.5 -32 76.5 -32 q45 0 77 32 q32 32 32 77 Z" /><glyph glyph-name="p" unicode="p" d="M640 391 q0 -121 -86 -207 q-86 -86 -208 -86 l-124 0 l0 -98 l-213 0 l0 685 l337 0 q122 0 208 -86 q86 -86 86 -208 ZM427 391 q0 34 -23.5 57.5 q-23.5 23.5 -57.5 23.5 l-124 0 l0 -162 l124 0 q34 0 57.5 24 q23.5 24 23.5 57 Z" /><glyph glyph-name="q" unicode="q" d="M1055 -2 q-42 -97 -122.5 -147 q-80.5 -50 -174.5 -50 q-19 0 -38 2 q-19 2 -38 6 q-19 4 -38 10.5 q-19 6.5 -38 14.5 q-32 14 -43 19 q-11 5 -17 9 q-6 4 -17 9 q-11 5 -43 19 q-19 8 -38.5 12.5 q-19.5 4.5 -38.5 4.5 q-37 0 -68 -19 q-31 -19 -48 -59 l-180 74 q17 39 39.5 70 q22.5 31 50.5 54 q-85 47 -138 132.5 q-53 85.5 -53 188.5 q0 152 107.5 259 q107.5 107 258.5 107 q152 0 259 -107 q107 -107 107 -259 q0 -90 -40.5 -167 q-40.5 -77 -108.5 -127 q13 -6 19 -9 q6 -3 10 -5 q7 -4 17.5 -9.5 q10.5 -5.5 42.5 -19.5 q19 -8 37.5 -11.5 q18.5 -3.5 36.5 -3.5 q38 0 69 18.5 q31 18.5 48 59.5 l180 -76 ZM532 348 q0 64 -45 109 q-45 45 -109 45 q-63 0 -108 -45 q-45 -45 -45 -109 q0 -63 45 -108 q45 -45 108 -45 q64 0 109 45 q45 45 45 108 Z" /><glyph glyph-name="r" unicode="r" d="M796 35 q-42 -24 -86.5 -38.5 q-44.5 -14.5 -89.5 -19.5 q-13 -2 -26 -2.5 q-13 -0.5 -26 -0.5 q-30 0 -60 4 q-30 4 -59 12 l-1 -1 q-54 14 -104 41.5 q-50 27.5 -92 67.5 l-2 0 l0 -98 l-212 0 l0 685 l337 0 q121 0 207 -86 q86 -86 86 -208 q0 -60 -22.5 -112.5 q-22.5 -52.5 -61.5 -92.5 q27 2 53.5 10 q26.5 8 51.5 22 l107 -183 ZM456 391 q0 34 -24 57.5 q-24 23.5 -57 23.5 l-125 0 l0 -162 l125 0 q33 0 57 24 q24 24 24 57 Z" /><glyph glyph-name="s" unicode="s" d="M517 610 l-150 -151 q-10 11 -23 17 q-13 6 -27 8 q-2 0 -4.5 0 q-2.5 0 -4.5 0 q-16 0 -32 -6 q-16 -6 -28 -19 q-12 -12 -18 -27 q-6 -15 -6 -32 q0 -16 6 -32 q6 -16 18 -28 l37 -37 q28 -28 41.5 -62.5 q13.5 -34.5 13.5 -70.5 q0 -36 -14 -70.5 q-14 -34.5 -41 -62.5 q-28 -28 -62.5 -41 q-34.5 -13 -70.5 -13 q-3 0 -5.5 0 q-2.5 0 -5.5 0 q-33 2 -65 15 q-32 13 -58 39 l117 116 q-4 3 -7.5 6.5 q-3.5 3.5 -7.5 7.5 q-2 2 -4 4 q-2 2 -4 4 q-3 4 -7 8 q-4 4 -7 8 q-43 44 -65 98 q-22 54 -22 111 q0 57 22 112 q22 55 65 98 q44 43 98.5 64.5 q54.5 21.5 111.5 21.5 q57 0 111.5 -21.5 q54.5 -21.5 97.5 -64.5 Z" /><glyph glyph-name="t" unicode="t" d="M520 473 l-149 0 l0 -473 l-212 0 l0 473 l-149 0 l0 212 l510 0 l0 -212 Z" /><glyph glyph-name="u" unicode="u" d="M567 339 q0 -115 -82 -197.5 q-82 -82.5 -198 -82.5 q-115 0 -198 82.5 q-83 82.5 -83 197.5 l0 346 l212 0 l0 -346 q0 -33 22 -49.5 q22 -16.5 48 -16.5 q25 0 45.5 16 q20.5 16 20.5 50 l0 346 l213 0 l0 -346 Z" /><glyph glyph-name="v" unicode="v" d="M836 685 l-419 -727 l-419 727 l245 0 l174 -302 l173 302 l246 0 Z" /><glyph glyph-name="w" unicode="w" d="M1140 685 l-401 -723 l-170 315 l-171 -315 l-400 723 l242 0 l156 -283 l173 318 l172 -318 l157 283 l242 0 Z" /><glyph glyph-name="x" unicode="x" d="M770 0 l-262 0 l-124 171 l-123 -171 l-262 0 l254 351 l-242 334 l262 0 l111 -153 l112 153 l262 0 l-242 -334 l254 -351 Z" /><glyph glyph-name="y" unicode="y" d="M702 685 l-244 -424 l0 -261 l-212 0 l0 261 l-244 424 l245 0 l105 -182 l105 182 l245 0 Z" /><glyph glyph-name="z" unicode="z" d="M643 684 l-272 -472 l142 0 l-102 -212 l-408 0 l272 471 l-245 0 l0 213 l613 0 Z" /><glyph glyph-name="braceleft" unicode="{" d="" /><glyph glyph-name="bar" unicode="|" d="M102 -200 l-76 0 l0 1003 l76 0 l0 -1003 Z" /><glyph glyph-name="braceright" unicode="}" d="" /><glyph glyph-name="asciitilde" unicode="~" d="" /><glyph glyph-name="Adieresis" unicode="ä" d="M870 0 l-245 0 l-35 59 l-309 0 l-34 -59 l-246 0 l343 594 l92 160 l92 -160 l41 -72 q10 62 45.5 109.5 q35.5 47.5 104.5 65.5 q12 3 24 5 q12 2 23 2 q24 0 46.5 -7.5 q22.5 -7.5 44.5 -23.5 q24 -18 37 -45.5 q13 -27.5 14 -57.5 q0 -2 0 -3.5 q0 -1.5 0 -3.5 q0 -43 -25.5 -78.5 q-25.5 -35.5 -76.5 -37.5 q-39 -1 -62.5 24 q-23.5 25 -23.5 57 q0 4 0.5 7.5 q0.5 3.5 0.5 6.5 q2 11 7 21.5 q5 10.5 13 20.5 q5 7 11.5 9.5 q6.5 2.5 13.5 2.5 q11 0 20 -8.5 q9 -8.5 9 -20.5 q0 -5 -2 -10.5 q-2 -5.5 -7 -10.5 q-4 -4 -5.5 -9.5 q-1.5 -5.5 -1.5 -10.5 q1 -8 7 -14.5 q6 -6.5 17 -5.5 q24 2 34.5 18 q10.5 16 10.5 37 q0 1 0 2.5 q0 1.5 0 2.5 q-1 18 -8.5 34 q-7.5 16 -19.5 25 q-10 8 -22 11 q-12 3 -25 3 q-5 0 -10 -0.5 q-5 -0.5 -10 -1.5 q-60 -10 -85.5 -51 q-25.5 -41 -25.5 -97 q0 -20 3 -41 q3 -21 8 -43 q5 -21 13 -42 q8 -21 18 -41 l186 -322 ZM468 272 l-32 56 l-33 -56 l65 0 ZM419 775 q0 -19 -13.5 -33 q-13.5 -14 -33.5 -14 q-19 0 -33 14 q-14 14 -14 33 q0 19 14 33 q14 14 33 14 q20 0 33.5 -14 q13.5 -14 13.5 -33 ZM541 775 q0 -19 -13.5 -33 q-13.5 -14 -32.5 -14 q-19 0 -33 14 q-14 14 -14 33 q0 19 14 33 q14 14 33 14 q19 0 32.5 -14 q13.5 -14 13.5 -33 Z" /><glyph glyph-name="Aring" unicode="å" d="M870 0 l-245 0 l-35 59 l-309 0 l-34 -59 l-246 0 l343 594 l92 160 l92 -160 l41 -72 q10 62 45.5 109.5 q35.5 47.5 104.5 65.5 q12 3 24 5 q12 2 23 2 q24 0 46.5 -7.5 q22.5 -7.5 44.5 -23.5 q24 -18 37 -45.5 q13 -27.5 14 -57.5 q0 -2 0 -3.5 q0 -1.5 0 -3.5 q0 -43 -25.5 -78.5 q-25.5 -35.5 -76.5 -37.5 q-39 -1 -62.5 24 q-23.5 25 -23.5 57 q0 4 0.5 7.5 q0.5 3.5 0.5 6.5 q2 11 7 21.5 q5 10.5 13 20.5 q5 7 11.5 9.5 q6.5 2.5 13.5 2.5 q11 0 20 -8.5 q9 -8.5 9 -20.5 q0 -5 -2 -10.5 q-2 -5.5 -7 -10.5 q-4 -4 -5.5 -9.5 q-1.5 -5.5 -1.5 -10.5 q1 -8 7 -14.5 q6 -6.5 17 -5.5 q24 2 34.5 18 q10.5 16 10.5 37 q0 1 0 2.5 q0 1.5 0 2.5 q-1 18 -8.5 34 q-7.5 16 -19.5 25 q-10 8 -22 11 q-12 3 -25 3 q-5 0 -10 -0.5 q-5 -0.5 -10 -1.5 q-60 -10 -85.5 -51 q-25.5 -41 -25.5 -97 q0 -20 3 -41 q3 -21 8 -43 q5 -21 13 -42 q8 -21 18 -41 l186 -322 ZM468 272 l-32 56 l-33 -56 l65 0 ZM515 807 q0 -31 -22.5 -53.5 q-22.5 -22.5 -54.5 -22.5 q-31 0 -54 22.5 q-23 22.5 -23 53.5 q0 32 23 54.5 q23 22.5 54 22.5 q32 0 54.5 -22.5 q22.5 -22.5 22.5 -54.5 ZM468 807 q0 13 -9 21.5 q-9 8.5 -21 8.5 q-12 0 -21 -8.5 q-9 -8.5 -9 -21.5 q0 -12 9 -20.5 q9 -8.5 21 -8.5 q12 0 21 8.5 q9 8.5 9 20.5 Z" /><glyph glyph-name="Ccedilla" unicode="ç" d="M406 -117 q0 -31 -38.5 -48.5 q-38.5 -17.5 -93.5 -17.5 q-8 0 -15.5 0.5 q-7.5 0.5 -15.5 1.5 l18 37 q2 1 3 1 q1 0 3 -1 q1 0 2.5 0 q1.5 0 2.5 0 q21 0 35 8.5 q14 8.5 14 20.5 q-3 14 -11.5 19.5 q-8.5 5.5 -21.5 8.5 q-7 3 -15.5 5 q-8.5 2 -17.5 6 l34 86 l49 -15 l-19 -47 q38 -5 62.5 -22 q24.5 -17 24.5 -42 l0 -1 ZM461 -13 q-21 -4 -42.5 -7 q-21.5 -3 -43.5 -3 q-151 0 -258.5 107.5 q-107.5 107.5 -107.5 258.5 q0 151 107.5 258.5 q107.5 107.5 258.5 107.5 q22 0 43.5 -3 q21.5 -3 42.5 -8 l-50 -206 q-9 2 -18 3 q-9 1 -17 1 q-61 0 -108 -44 q-47 -44 -47 -109 q0 -66 47 -110.5 q47 -44.5 108 -43.5 q5 0 9 0 q4 0 9 1 q4 0 8.5 1 q4.5 1 8.5 2 l50 -206 Z" /><glyph glyph-name="Eacute" unicode="é" d="M508 235 l-292 0 l0 -23 l211 0 l0 -212 l-424 0 l0 684 l424 0 l0 -213 l-211 0 l0 -23 l292 0 l0 -213 ZM412 767 l-219 -69 l-12 39 l193 153 l38 -123 Z" /><glyph glyph-name="Ntilde" unicode="ñ" d="M694 -83 l-476 377 l0 -294 l-213 0 l0 732 l476 -376 l0 329 l213 0 l0 -768 ZM472 723 q-2 -2 -4 -3.5 q-2 -1.5 -4 -3.5 q-18 -17 -38.5 -30.5 q-20.5 -13.5 -48.5 -13.5 q-18 0 -34 6.5 q-16 6.5 -32 13.5 q-3 2 -7 3.5 q-4 1.5 -7 3.5 q-8 4 -16.5 7.5 q-8.5 3.5 -16.5 5.5 q-4 1 -8.5 1.5 q-4.5 0.5 -8.5 0.5 q-7 0 -13.5 -1.5 q-6.5 -1.5 -13.5 -6.5 q-6 -4 -11 -9.5 q-5 -5.5 -10 -11.5 q0 0 -0.5 -0.5 q-0.5 -0.5 -0.5 -0.5 q-3 -3 -5.5 -6 q-2.5 -3 -5.5 -6 l-34 63 q16 23 40 40.5 q24 17.5 55 17.5 q2 0 4 0 q2 0 4 0 q2 0 4 -0.5 q2 -0.5 4 -0.5 q14 -2 27 -8 q13 -6 26 -12 q0 0 0.5 -0.5 q0.5 -0.5 0.5 -0.5 q13 -6 25.5 -11.5 q12.5 -5.5 26.5 -8.5 q3 -1 5.5 -1 q2.5 0 4.5 0 q18 0 32.5 10.5 q14.5 10.5 23.5 22.5 q1 1 2 2.5 q1 1.5 2 2.5 l32 -65 Z" /><glyph glyph-name="Odieresis" unicode="ö" d="M737 343 q0 -151 -107.5 -258.5 q-107.5 -107.5 -258.5 -107.5 q-151 0 -258.5 107.5 q-107.5 107.5 -107.5 258.5 q0 151 107.5 258.5 q107.5 107.5 258.5 107.5 q151 0 258.5 -107.5 q107.5 -107.5 107.5 -258.5 ZM525 343 q0 63 -45.5 108 q-45.5 45 -108.5 45 q-64 0 -109 -45 q-45 -45 -45 -108 q0 -64 45 -109 q45 -45 109 -45 q63 0 108.5 45 q45.5 45 45.5 109 ZM349 775 q0 -19 -13.5 -33 q-13.5 -14 -33.5 -14 q-19 0 -33 14 q-14 14 -14 33 q0 19 14 33 q14 14 33 14 q20 0 33.5 -14 q13.5 -14 13.5 -33 ZM471 775 q0 -19 -13.5 -33 q-13.5 -14 -32.5 -14 q-19 0 -33 14 q-14 14 -14 33 q0 19 14 33 q14 14 33 14 q19 0 32.5 -14 q13.5 -14 13.5 -33 Z" /><glyph glyph-name="Udieresis" unicode="ü" d="M571 267 q0 -115 -82 -196.5 q-82 -81.5 -198 -81.5 q-57 0 -108.5 21.5 q-51.5 21.5 -89.5 59.5 q-38 38 -60.5 88.5 q-22.5 50.5 -22.5 108.5 l0 418 l212 0 l0 -418 q0 -13 5.5 -25.5 q5.5 -12.5 14.5 -21.5 q10 -9 22.5 -14.5 q12.5 -5.5 26.5 -5.5 q28 0 47.5 19.5 q19.5 19.5 19.5 47.5 l0 418 l213 0 l0 -418 ZM279 745 q0 -19 -13.5 -33 q-13.5 -14 -33.5 -14 q-19 0 -33 14 q-14 14 -14 33 q0 19 14 33 q14 14 33 14 q20 0 33.5 -14 q13.5 -14 13.5 -33 ZM401 745 q0 -19 -13.5 -33 q-13.5 -14 -32.5 -14 q-19 0 -33 14 q-14 14 -14 33 q0 19 14 33 q14 14 33 14 q19 0 32.5 -14 q13.5 -14 13.5 -33 Z" /><glyph glyph-name="aacute" unicode="á" d="M870 0 l-245 0 l-35 59 l-309 0 l-34 -59 l-246 0 l343 594 l92 160 l92 -160 l41 -72 q10 62 45.5 109.5 q35.5 47.5 104.5 65.5 q12 3 24 5 q12 2 23 2 q24 0 46.5 -7.5 q22.5 -7.5 44.5 -23.5 q24 -18 37 -45.5 q13 -27.5 14 -57.5 q0 -2 0 -3.5 q0 -1.5 0 -3.5 q0 -43 -25.5 -78.5 q-25.5 -35.5 -76.5 -37.5 q-39 -1 -62.5 24 q-23.5 25 -23.5 57 q0 4 0.5 7.5 q0.5 3.5 0.5 6.5 q2 11 7 21.5 q5 10.5 13 20.5 q5 7 11.5 9.5 q6.5 2.5 13.5 2.5 q11 0 20 -8.5 q9 -8.5 9 -20.5 q0 -5 -2 -10.5 q-2 -5.5 -7 -10.5 q-4 -4 -5.5 -9.5 q-1.5 -5.5 -1.5 -10.5 q1 -8 7 -14.5 q6 -6.5 17 -5.5 q24 2 34.5 18 q10.5 16 10.5 37 q0 1 0 2.5 q0 1.5 0 2.5 q-1 18 -8.5 34 q-7.5 16 -19.5 25 q-10 8 -22 11 q-12 3 -25 3 q-5 0 -10 -0.5 q-5 -0.5 -10 -1.5 q-60 -10 -85.5 -51 q-25.5 -41 -25.5 -97 q0 -20 3 -41 q3 -21 8 -43 q5 -21 13 -42 q8 -21 18 -41 l186 -322 ZM468 272 l-32 56 l-33 -56 l65 0 ZM625 830 l-219 -69 l-12 39 l193 153 l38 -123 Z" /><glyph glyph-name="agrave" unicode="à" d="M870 0 l-245 0 l-35 59 l-309 0 l-34 -59 l-246 0 l343 594 l92 160 l92 -160 l41 -72 q10 62 45.5 109.5 q35.5 47.5 104.5 65.5 q12 3 24 5 q12 2 23 2 q24 0 46.5 -7.5 q22.5 -7.5 44.5 -23.5 q24 -18 37 -45.5 q13 -27.5 14 -57.5 q0 -2 0 -3.5 q0 -1.5 0 -3.5 q0 -43 -25.5 -78.5 q-25.5 -35.5 -76.5 -37.5 q-39 -1 -62.5 24 q-23.5 25 -23.5 57 q0 4 0.5 7.5 q0.5 3.5 0.5 6.5 q2 11 7 21.5 q5 10.5 13 20.5 q5 7 11.5 9.5 q6.5 2.5 13.5 2.5 q11 0 20 -8.5 q9 -8.5 9 -20.5 q0 -5 -2 -10.5 q-2 -5.5 -7 -10.5 q-4 -4 -5.5 -9.5 q-1.5 -5.5 -1.5 -10.5 q1 -8 7 -14.5 q6 -6.5 17 -5.5 q24 2 34.5 18 q10.5 16 10.5 37 q0 1 0 2.5 q0 1.5 0 2.5 q-1 18 -8.5 34 q-7.5 16 -19.5 25 q-10 8 -22 11 q-12 3 -25 3 q-5 0 -10 -0.5 q-5 -0.5 -10 -1.5 q-60 -10 -85.5 -51 q-25.5 -41 -25.5 -97 q0 -20 3 -41 q3 -21 8 -43 q5 -21 13 -42 q8 -21 18 -41 l186 -322 ZM468 272 l-32 56 l-33 -56 l65 0 ZM492 803 l-12 -39 l-219 69 l38 123 l193 -153 Z" /><glyph glyph-name="acircumflex" unicode="â" d="M870 0 l-245 0 l-35 59 l-309 0 l-34 -59 l-246 0 l343 594 l92 160 l92 -160 l41 -72 q10 62 45.5 109.5 q35.5 47.5 104.5 65.5 q12 3 24 5 q12 2 23 2 q24 0 46.5 -7.5 q22.5 -7.5 44.5 -23.5 q24 -18 37 -45.5 q13 -27.5 14 -57.5 q0 -2 0 -3.5 q0 -1.5 0 -3.5 q0 -43 -25.5 -78.5 q-25.5 -35.5 -76.5 -37.5 q-39 -1 -62.5 24 q-23.5 25 -23.5 57 q0 4 0.5 7.5 q0.5 3.5 0.5 6.5 q2 11 7 21.5 q5 10.5 13 20.5 q5 7 11.5 9.5 q6.5 2.5 13.5 2.5 q11 0 20 -8.5 q9 -8.5 9 -20.5 q0 -5 -2 -10.5 q-2 -5.5 -7 -10.5 q-4 -4 -5.5 -9.5 q-1.5 -5.5 -1.5 -10.5 q1 -8 7 -14.5 q6 -6.5 17 -5.5 q24 2 34.5 18 q10.5 16 10.5 37 q0 1 0 2.5 q0 1.5 0 2.5 q-1 18 -8.5 34 q-7.5 16 -19.5 25 q-10 8 -22 11 q-12 3 -25 3 q-5 0 -10 -0.5 q-5 -0.5 -10 -1.5 q-60 -10 -85.5 -51 q-25.5 -41 -25.5 -97 q0 -20 3 -41 q3 -21 8 -43 q5 -21 13 -42 q8 -21 18 -41 l186 -322 ZM468 272 l-32 56 l-33 -56 l65 0 ZM571 754 l-86 0 l-48 19 l-48 -19 l-86 0 l134 109 l134 -109 Z" /><glyph glyph-name="adieresis" unicode="ä" d="M870 0 l-245 0 l-35 59 l-309 0 l-34 -59 l-246 0 l343 594 l92 160 l92 -160 l41 -72 q10 62 45.5 109.5 q35.5 47.5 104.5 65.5 q12 3 24 5 q12 2 23 2 q24 0 46.5 -7.5 q22.5 -7.5 44.5 -23.5 q24 -18 37 -45.5 q13 -27.5 14 -57.5 q0 -2 0 -3.5 q0 -1.5 0 -3.5 q0 -43 -25.5 -78.5 q-25.5 -35.5 -76.5 -37.5 q-39 -1 -62.5 24 q-23.5 25 -23.5 57 q0 4 0.5 7.5 q0.5 3.5 0.5 6.5 q2 11 7 21.5 q5 10.5 13 20.5 q5 7 11.5 9.5 q6.5 2.5 13.5 2.5 q11 0 20 -8.5 q9 -8.5 9 -20.5 q0 -5 -2 -10.5 q-2 -5.5 -7 -10.5 q-4 -4 -5.5 -9.5 q-1.5 -5.5 -1.5 -10.5 q1 -8 7 -14.5 q6 -6.5 17 -5.5 q24 2 34.5 18 q10.5 16 10.5 37 q0 1 0 2.5 q0 1.5 0 2.5 q-1 18 -8.5 34 q-7.5 16 -19.5 25 q-10 8 -22 11 q-12 3 -25 3 q-5 0 -10 -0.5 q-5 -0.5 -10 -1.5 q-60 -10 -85.5 -51 q-25.5 -41 -25.5 -97 q0 -20 3 -41 q3 -21 8 -43 q5 -21 13 -42 q8 -21 18 -41 l186 -322 ZM468 272 l-32 56 l-33 -56 l65 0 ZM419 775 q0 -19 -13.5 -33 q-13.5 -14 -33.5 -14 q-19 0 -33 14 q-14 14 -14 33 q0 19 14 33 q14 14 33 14 q20 0 33.5 -14 q13.5 -14 13.5 -33 ZM541 775 q0 -19 -13.5 -33 q-13.5 -14 -32.5 -14 q-19 0 -33 14 q-14 14 -14 33 q0 19 14 33 q14 14 33 14 q19 0 32.5 -14 q13.5 -14 13.5 -33 Z" /><glyph glyph-name="atilde" unicode="ã" d="M870 0 l-245 0 l-35 59 l-309 0 l-34 -59 l-246 0 l343 594 l92 160 l92 -160 l41 -72 q10 62 45.5 109.5 q35.5 47.5 104.5 65.5 q12 3 24 5 q12 2 23 2 q24 0 46.5 -7.5 q22.5 -7.5 44.5 -23.5 q24 -18 37 -45.5 q13 -27.5 14 -57.5 q0 -2 0 -3.5 q0 -1.5 0 -3.5 q0 -43 -25.5 -78.5 q-25.5 -35.5 -76.5 -37.5 q-39 -1 -62.5 24 q-23.5 25 -23.5 57 q0 4 0.5 7.5 q0.5 3.5 0.5 6.5 q2 11 7 21.5 q5 10.5 13 20.5 q5 7 11.5 9.5 q6.5 2.5 13.5 2.5 q11 0 20 -8.5 q9 -8.5 9 -20.5 q0 -5 -2 -10.5 q-2 -5.5 -7 -10.5 q-4 -4 -5.5 -9.5 q-1.5 -5.5 -1.5 -10.5 q1 -8 7 -14.5 q6 -6.5 17 -5.5 q24 2 34.5 18 q10.5 16 10.5 37 q0 1 0 2.5 q0 1.5 0 2.5 q-1 18 -8.5 34 q-7.5 16 -19.5 25 q-10 8 -22 11 q-12 3 -25 3 q-5 0 -10 -0.5 q-5 -0.5 -10 -1.5 q-60 -10 -85.5 -51 q-25.5 -41 -25.5 -97 q0 -20 3 -41 q3 -21 8 -43 q5 -21 13 -42 q8 -21 18 -41 l186 -322 ZM468 272 l-32 56 l-33 -56 l65 0 ZM612 803 q-2 -2 -4 -3.5 q-2 -1.5 -4 -3.5 q-18 -17 -38.5 -30.5 q-20.5 -13.5 -48.5 -13.5 q-18 0 -34 6.5 q-16 6.5 -32 13.5 q-3 2 -7 3.5 q-4 1.5 -7 3.5 q-8 4 -16.5 7.5 q-8.5 3.5 -16.5 5.5 q-4 1 -8.5 1.5 q-4.5 0.5 -8.5 0.5 q-7 0 -13.5 -1.5 q-6.5 -1.5 -13.5 -6.5 q-6 -4 -11 -9.5 q-5 -5.5 -10 -11.5 q0 0 -0.5 -0.5 q-0.5 -0.5 -0.5 -0.5 q-3 -3 -5.5 -6 q-2.5 -3 -5.5 -6 l-34 63 q16 23 40 40.5 q24 17.5 55 17.5 q2 0 4 0 q2 0 4 0 q2 0 4 -0.5 q2 -0.5 4 -0.5 q14 -2 27 -8 q13 -6 26 -12 q0 0 0.5 -0.5 q0.5 -0.5 0.5 -0.5 q13 -6 25.5 -11.5 q12.5 -5.5 26.5 -8.5 q3 -1 5.5 -1 q2.5 0 4.5 0 q18 0 32.5 10.5 q14.5 10.5 23.5 22.5 q1 1 2 2.5 q1 1.5 2 2.5 l32 -65 Z" /><glyph glyph-name="aring" unicode="å" d="M870 0 l-245 0 l-35 59 l-309 0 l-34 -59 l-246 0 l343 594 l92 160 l92 -160 l41 -72 q10 62 45.5 109.5 q35.5 47.5 104.5 65.5 q12 3 24 5 q12 2 23 2 q24 0 46.5 -7.5 q22.5 -7.5 44.5 -23.5 q24 -18 37 -45.5 q13 -27.5 14 -57.5 q0 -2 0 -3.5 q0 -1.5 0 -3.5 q0 -43 -25.5 -78.5 q-25.5 -35.5 -76.5 -37.5 q-39 -1 -62.5 24 q-23.5 25 -23.5 57 q0 4 0.5 7.5 q0.5 3.5 0.5 6.5 q2 11 7 21.5 q5 10.5 13 20.5 q5 7 11.5 9.5 q6.5 2.5 13.5 2.5 q11 0 20 -8.5 q9 -8.5 9 -20.5 q0 -5 -2 -10.5 q-2 -5.5 -7 -10.5 q-4 -4 -5.5 -9.5 q-1.5 -5.5 -1.5 -10.5 q1 -8 7 -14.5 q6 -6.5 17 -5.5 q24 2 34.5 18 q10.5 16 10.5 37 q0 1 0 2.5 q0 1.5 0 2.5 q-1 18 -8.5 34 q-7.5 16 -19.5 25 q-10 8 -22 11 q-12 3 -25 3 q-5 0 -10 -0.5 q-5 -0.5 -10 -1.5 q-60 -10 -85.5 -51 q-25.5 -41 -25.5 -97 q0 -20 3 -41 q3 -21 8 -43 q5 -21 13 -42 q8 -21 18 -41 l186 -322 ZM468 272 l-32 56 l-33 -56 l65 0 ZM515 807 q0 -31 -22.5 -53.5 q-22.5 -22.5 -54.5 -22.5 q-31 0 -54 22.5 q-23 22.5 -23 53.5 q0 32 23 54.5 q23 22.5 54 22.5 q32 0 54.5 -22.5 q22.5 -22.5 22.5 -54.5 ZM468 807 q0 13 -9 21.5 q-9 8.5 -21 8.5 q-12 0 -21 -8.5 q-9 -8.5 -9 -21.5 q0 -12 9 -20.5 q9 -8.5 21 -8.5 q12 0 21 8.5 q9 8.5 9 20.5 Z" /><glyph glyph-name="ccedilla" unicode="ç" d="M416 -127 q0 -31 -38.5 -48.5 q-38.5 -17.5 -93.5 -17.5 q-8 0 -15.5 0.5 q-7.5 0.5 -15.5 1.5 l18 37 q2 1 3 1 q1 0 3 -1 q1 0 2.5 0 q1.5 0 2.5 0 q21 0 35 8.5 q14 8.5 14 20.5 q-3 14 -11.5 19.5 q-8.5 5.5 -21.5 8.5 q-7 3 -15.5 5 q-8.5 2 -17.5 6 l34 86 l49 -15 l-19 -47 q38 -5 62.5 -22 q24.5 -17 24.5 -42 l0 -1 ZM461 -13 q-21 -4 -42.5 -7 q-21.5 -3 -43.5 -3 q-151 0 -258.5 107.5 q-107.5 107.5 -107.5 258.5 q0 151 107.5 258.5 q107.5 107.5 258.5 107.5 q22 0 43.5 -3 q21.5 -3 42.5 -8 l-50 -206 q-9 2 -18 3 q-9 1 -17 1 q-61 0 -108 -44 q-47 -44 -47 -109 q0 -66 47 -110.5 q47 -44.5 108 -43.5 q5 0 9 0 q4 0 9 1 q4 0 8.5 1 q4.5 1 8.5 2 l50 -206 Z" /><glyph glyph-name="eacute" unicode="é" d="M508 235 l-292 0 l0 -23 l211 0 l0 -212 l-424 0 l0 684 l424 0 l0 -213 l-211 0 l0 -23 l292 0 l0 -213 ZM421 767 l-219 -69 l-12 39 l193 153 l38 -123 Z" /><glyph glyph-name="egrave" unicode="è" d="M508 235 l-292 0 l0 -23 l211 0 l0 -212 l-424 0 l0 684 l424 0 l0 -213 l-211 0 l0 -23 l292 0 l0 -213 ZM315 737 l-12 -39 l-219 69 l38 123 l193 -153 Z" /><glyph glyph-name="ecircumflex" unicode="ê" d="M508 235 l-292 0 l0 -23 l211 0 l0 -212 l-424 0 l0 684 l424 0 l0 -213 l-211 0 l0 -23 l292 0 l0 -213 ZM351 694 l-86 0 l-48 19 l-48 -19 l-86 0 l134 109 l134 -109 Z" /><glyph glyph-name="edieresis" unicode="ë" d="M508 235 l-292 0 l0 -23 l211 0 l0 -212 l-424 0 l0 684 l424 0 l0 -213 l-211 0 l0 -23 l292 0 l0 -213 ZM199 745 q0 -19 -13.5 -33 q-13.5 -14 -33.5 -14 q-19 0 -33 14 q-14 14 -14 33 q0 19 14 33 q14 14 33 14 q20 0 33.5 -14 q13.5 -14 13.5 -33 ZM321 745 q0 -19 -13.5 -33 q-13.5 -14 -32.5 -14 q-19 0 -33 14 q-14 14 -14 33 q0 19 14 33 q14 14 33 14 q19 0 32.5 -14 q13.5 -14 13.5 -33 Z" /><glyph glyph-name="iacute" unicode="í" d="M223 0 l-212 0 l0 685 l212 0 l0 -685 ZM334 767 l-219 -69 l-12 39 l193 153 l38 -123 Z" /><glyph glyph-name="igrave" unicode="ì" d="M223 0 l-212 0 l0 685 l212 0 l0 -685 ZM186 749 l-12 -39 l-219 69 l38 123 l193 -153 Z" /><glyph glyph-name="icircumflex" unicode="î" d="M223 0 l-212 0 l0 685 l212 0 l0 -685 ZM251 694 l-86 0 l-48 19 l-48 -19 l-86 0 l134 109 l134 -109 Z" /><glyph glyph-name="idieresis" unicode="ï" d="M223 0 l-212 0 l0 685 l212 0 l0 -685 ZM99 745 q0 -19 -13.5 -33 q-13.5 -14 -33.5 -14 q-19 0 -33 14 q-14 14 -14 33 q0 19 14 33 q14 14 33 14 q20 0 33.5 -14 q13.5 -14 13.5 -33 ZM221 745 q0 -19 -13.5 -33 q-13.5 -14 -32.5 -14 q-19 0 -33 14 q-14 14 -14 33 q0 19 14 33 q14 14 33 14 q19 0 32.5 -14 q13.5 -14 13.5 -33 Z" /><glyph glyph-name="ntilde" unicode="ñ" d="M694 -83 l-476 377 l0 -294 l-213 0 l0 732 l476 -376 l0 329 l213 0 l0 -768 ZM482 723 q-2 -2 -4 -3.5 q-2 -1.5 -4 -3.5 q-18 -17 -38.5 -30.5 q-20.5 -13.5 -48.5 -13.5 q-18 0 -34 6.5 q-16 6.5 -32 13.5 q-3 2 -7 3.5 q-4 1.5 -7 3.5 q-8 4 -16.5 7.5 q-8.5 3.5 -16.5 5.5 q-4 1 -8.5 1.5 q-4.5 0.5 -8.5 0.5 q-7 0 -13.5 -1.5 q-6.5 -1.5 -13.5 -6.5 q-6 -4 -11 -9.5 q-5 -5.5 -10 -11.5 q0 0 -0.5 -0.5 q-0.5 -0.5 -0.5 -0.5 q-3 -3 -5.5 -6 q-2.5 -3 -5.5 -6 l-34 63 q16 23 40 40.5 q24 17.5 55 17.5 q2 0 4 0 q2 0 4 0 q2 0 4 -0.5 q2 -0.5 4 -0.5 q14 -2 27 -8 q13 -6 26 -12 q0 0 0.5 -0.5 q0.5 -0.5 0.5 -0.5 q13 -6 25.5 -11.5 q12.5 -5.5 26.5 -8.5 q3 -1 5.5 -1 q2.5 0 4.5 0 q18 0 32.5 10.5 q14.5 10.5 23.5 22.5 q1 1 2 2.5 q1 1.5 2 2.5 l32 -65 Z" /><glyph glyph-name="oacute" unicode="ó" d="M650 382 q0 -133 -94.5 -227 q-94.5 -94 -227.5 -94 q-133 0 -227 94 q-94 94 -94 227 q0 133 94 227 q94 94 227 94 q133 0 227.5 -94 q94.5 -94 94.5 -227 ZM437 382 q0 45 -32 77 q-32 32 -77 32 q-45 0 -76.5 -32 q-31.5 -32 -31.5 -77 q0 -45 31.5 -77 q31.5 -32 76.5 -32 q45 0 77 32 q32 32 32 77 ZM520 788 l-219 -69 l-12 39 l193 153 l38 -123 Z" /><glyph glyph-name="ograve" unicode="ò" d="M650 382 q0 -133 -94.5 -227 q-94.5 -94 -227.5 -94 q-133 0 -227 94 q-94 94 -94 227 q0 133 94 227 q94 94 227 94 q133 0 227.5 -94 q94.5 -94 94.5 -227 ZM437 382 q0 45 -32 77 q-32 32 -77 32 q-45 0 -76.5 -32 q-31.5 -32 -31.5 -77 q0 -45 31.5 -77 q31.5 -32 76.5 -32 q45 0 77 32 q32 32 32 77 ZM399 758 l-12 -39 l-219 69 l38 123 l193 -153 Z" /><glyph glyph-name="ocircumflex" unicode="ô" d="M650 382 q0 -133 -94.5 -227 q-94.5 -94 -227.5 -94 q-133 0 -227 94 q-94 94 -94 227 q0 133 94 227 q94 94 227 94 q133 0 227.5 -94 q94.5 -94 94.5 -227 ZM437 382 q0 45 -32 77 q-32 32 -77 32 q-45 0 -76.5 -32 q-31.5 -32 -31.5 -77 q0 -45 31.5 -77 q31.5 -32 76.5 -32 q45 0 77 32 q32 32 32 77 ZM461 714 l-86 0 l-48 19 l-48 -19 l-86 0 l134 109 l134 -109 Z" /><glyph glyph-name="odieresis" unicode="ö" d="M650 382 q0 -133 -94.5 -227 q-94.5 -94 -227.5 -94 q-133 0 -227 94 q-94 94 -94 227 q0 133 94 227 q94 94 227 94 q133 0 227.5 -94 q94.5 -94 94.5 -227 ZM437 382 q0 45 -32 77 q-32 32 -77 32 q-45 0 -76.5 -32 q-31.5 -32 -31.5 -77 q0 -45 31.5 -77 q31.5 -32 76.5 -32 q45 0 77 32 q32 32 32 77 ZM309 755 q0 -19 -13.5 -33 q-13.5 -14 -33.5 -14 q-19 0 -33 14 q-14 14 -14 33 q0 19 14 33 q14 14 33 14 q20 0 33.5 -14 q13.5 -14 13.5 -33 ZM431 755 q0 -19 -13.5 -33 q-13.5 -14 -32.5 -14 q-19 0 -33 14 q-14 14 -14 33 q0 19 14 33 q14 14 33 14 q19 0 32.5 -14 q13.5 -14 13.5 -33 Z" /><glyph glyph-name="otilde" unicode="õ" d="M650 382 q0 -133 -94.5 -227 q-94.5 -94 -227.5 -94 q-133 0 -227 94 q-94 94 -94 227 q0 133 94 227 q94 94 227 94 q133 0 227.5 -94 q94.5 -94 94.5 -227 ZM437 382 q0 45 -32 77 q-32 32 -77 32 q-45 0 -76.5 -32 q-31.5 -32 -31.5 -77 q0 -45 31.5 -77 q31.5 -32 76.5 -32 q45 0 77 32 q32 32 32 77 ZM502 763 q-2 -2 -4 -3.5 q-2 -1.5 -4 -3.5 q-18 -17 -38.5 -30.5 q-20.5 -13.5 -48.5 -13.5 q-18 0 -34 6.5 q-16 6.5 -32 13.5 q-3 2 -7 3.5 q-4 1.5 -7 3.5 q-8 4 -16.5 7.5 q-8.5 3.5 -16.5 5.5 q-4 1 -8.5 1.5 q-4.5 0.5 -8.5 0.5 q-7 0 -13.5 -1.5 q-6.5 -1.5 -13.5 -6.5 q-6 -4 -11 -9.5 q-5 -5.5 -10 -11.5 q0 0 -0.5 -0.5 q-0.5 -0.5 -0.5 -0.5 q-3 -3 -5.5 -6 q-2.5 -3 -5.5 -6 l-34 63 q16 23 40 40.5 q24 17.5 55 17.5 q2 0 4 0 q2 0 4 0 q2 0 4 -0.5 q2 -0.5 4 -0.5 q14 -2 27 -8 q13 -6 26 -12 q0 0 0.5 -0.5 q0.5 -0.5 0.5 -0.5 q13 -6 25.5 -11.5 q12.5 -5.5 26.5 -8.5 q3 -1 5.5 -1 q2.5 0 4.5 0 q18 0 32.5 10.5 q14.5 10.5 23.5 22.5 q1 1 2 2.5 q1 1.5 2 2.5 l32 -65 Z" /><glyph glyph-name="uacute" unicode="ú" d="M567 339 q0 -115 -82 -197.5 q-82 -82.5 -198 -82.5 q-115 0 -198 82.5 q-83 82.5 -83 197.5 l0 346 l212 0 l0 -346 q0 -33 22 -49.5 q22 -16.5 48 -16.5 q25 0 45.5 16 q20.5 16 20.5 50 l0 346 l213 0 l0 -346 ZM487 767 l-219 -69 l-12 39 l193 153 l38 -123 Z" /><glyph glyph-name="ugrave" unicode="ù" d="M567 339 q0 -115 -82 -197.5 q-82 -82.5 -198 -82.5 q-115 0 -198 82.5 q-83 82.5 -83 197.5 l0 346 l212 0 l0 -346 q0 -33 22 -49.5 q22 -16.5 48 -16.5 q25 0 45.5 16 q20.5 16 20.5 50 l0 346 l213 0 l0 -346 ZM348 737 l-12 -39 l-219 69 l38 123 l193 -153 Z" /><glyph glyph-name="ucircumflex" unicode="û" d="M567 339 q0 -115 -82 -197.5 q-82 -82.5 -198 -82.5 q-115 0 -198 82.5 q-83 82.5 -83 197.5 l0 346 l212 0 l0 -346 q0 -33 22 -49.5 q22 -16.5 48 -16.5 q25 0 45.5 16 q20.5 16 20.5 50 l0 346 l213 0 l0 -346 ZM421 694 l-86 0 l-48 19 l-48 -19 l-86 0 l134 109 l134 -109 Z" /><glyph glyph-name="udieresis" unicode="ü" d="M567 339 q0 -115 -82 -197.5 q-82 -82.5 -198 -82.5 q-115 0 -198 82.5 q-83 82.5 -83 197.5 l0 346 l212 0 l0 -346 q0 -33 22 -49.5 q22 -16.5 48 -16.5 q25 0 45.5 16 q20.5 16 20.5 50 l0 346 l213 0 l0 -346 ZM279 745 q0 -19 -13.5 -33 q-13.5 -14 -33.5 -14 q-19 0 -33 14 q-14 14 -14 33 q0 19 14 33 q14 14 33 14 q20 0 33.5 -14 q13.5 -14 13.5 -33 ZM401 745 q0 -19 -13.5 -33 q-13.5 -14 -32.5 -14 q-19 0 -33 14 q-14 14 -14 33 q0 19 14 33 q14 14 33 14 q19 0 32.5 -14 q13.5 -14 13.5 -33 Z" /><glyph glyph-name="dagger" unicode="&#x2020;" d="" /><glyph glyph-name="cent" unicode="¢" d="M362 79 q-10 -2 -21.5 -4 q-11.5 -2 -22.5 -3 q-5 -1 -10.5 -1 q-5.5 0 -11.5 0 q-4 0 -8 0 q-4 0 -8 1 q-4 0 -8 0.5 q-4 0.5 -8 0.5 l0 -73 l-94 0 l0 102 q-19 10 -36.5 22.5 q-17.5 12.5 -33.5 28.5 q-41 41 -61.5 92.5 q-20.5 51.5 -20.5 105.5 q0 53 21 104.5 q21 51.5 61 91.5 q16 16 33.5 28.5 q17.5 12.5 36.5 22.5 l0 87 l94 0 l0 -59 q8 1 16.5 1.5 q8.5 0.5 16.5 0.5 q17 0 33 -2 q16 -2 32 -6 l-41 -171 q-6 2 -12 2.5 q-6 0.5 -12 0.5 q-40 0 -71 -29 q-31 -29 -31 -73 q0 -43 31 -72.5 q31 -29.5 71 -29.5 q6 0 12 1 q6 1 12 2 l41 -172 Z" /><glyph glyph-name="sterling" unicode="£" d="M607 124 q-24 -45 -62.5 -74.5 q-38.5 -29.5 -83.5 -42.5 q-16 -4 -33.5 -6.5 q-17.5 -2.5 -35.5 -2.5 q-30 1 -59.5 7.5 q-29.5 6.5 -57.5 22.5 q-7 5 -15.5 6.5 q-8.5 1.5 -16.5 1.5 q-1 0 -2.5 0 q-1.5 0 -2.5 0 q-16 -1 -31 -10 q-15 -9 -23 -24 l-155 85 q16 29 37.5 51 q21.5 22 46.5 38 q0 15 0 30.5 q0 15.5 0 30.5 q0 15 0 30.5 q0 15.5 0 30.5 l-80 0 l0 47 l80 0 q0 29 0 58.5 q0 29.5 0 58.5 q0 94 66.5 160.5 q66.5 66.5 160.5 66.5 q44 0 86 -17.5 q42 -17.5 74 -49.5 l-126 -124 q-7 8 -16 11 q-9 3 -19 3 q-19 0 -34 -13.5 q-15 -13.5 -15 -36.5 q0 -29 0 -58.5 q0 -29.5 0 -58.5 l98 0 l0 -47 l-98 0 q0 -22 0 -44.5 q0 -22.5 0 -44.5 q18 -4 36 -10.5 q18 -6.5 35 -16.5 q5 -2 10.5 -4 q5.5 -2 11.5 -3 q3 -1 5.5 -1 q2.5 0 5.5 0 q1 0 2.5 0 q1.5 0 2.5 0 q16 2 31 11 q15 9 23 24 l154 -85 Z" /><glyph glyph-name="section" unicode="§" d="" /><glyph glyph-name="paragraph" unicode="¶" d="" /><glyph glyph-name="germandbls" unicode="ß" d="M614 284 q3 -10 4.5 -20.5 q1.5 -10.5 2.5 -21.5 q1 -5 1 -10.5 q0 -5.5 0 -10.5 q0 -43 -14.5 -83.5 q-14.5 -40.5 -43.5 -73.5 q-34 -38 -80 -58.5 q-46 -20.5 -96 -20.5 q-9 0 -18 0.5 q-9 0.5 -19 2.5 l0 208 q8 0 16.5 0 q8.5 0 16.5 0 q11 0 18.5 7 q7.5 7 7.5 17 q0 2 0 3.5 q0 1.5 -1 2.5 q-1 5 -5 8 q-4 3 -8 5 q-1 0 -1 0 q0 0 0 0 q-1 1 -1.5 1.5 q-0.5 0.5 -1.5 0.5 q-37 17 -58.5 53 q-21.5 36 -21.5 79 q0 21 5 40.5 q5 19.5 16 35.5 q3 4 4 7.5 q1 3.5 1 5.5 q-1 6 -5 9.5 q-4 3.5 -8 4.5 q-1 0 -1.5 0 q-0.5 0 -1.5 0 q-5 0 -9.5 -3.5 q-4.5 -3.5 -4.5 -11.5 q0 -71 0 -143 q0 -72 0 -144 q0 -103 -74.5 -177 q-74.5 -74 -178.5 -74 l0 212 q17 0 28.5 11.5 q11.5 11.5 11.5 27.5 q0 4 0 7.5 q0 3.5 0 7.5 q0 3 0 6.5 q0 3.5 0 7.5 l-93 0 l72 212 l21 0 q0 6 0 11.5 q0 5.5 0 11.5 q0 6 0 11.5 q0 5.5 0 11.5 q0 47 18 88.5 q18 41.5 49 72.5 q34 33 76 49.5 q42 16.5 85 16.5 q44 0 85.5 -16.5 q41.5 -16.5 75.5 -49.5 q33 -34 49.5 -75.5 q16.5 -41.5 16.5 -85.5 q0 -8 -0.5 -16 q-0.5 -8 -1.5 -16 q-1 -8 -3 -16 q-2 -8 -4 -16 q26 -22 44.5 -50.5 q18.5 -28.5 28.5 -62.5 Z" /><glyph glyph-name="registered" unicode="®" d="M332 543 q0 -65 -46.5 -111.5 q-46.5 -46.5 -111.5 -46.5 q-65 0 -111.5 46 q-46.5 46 -46.5 112 q0 65 47 111.5 q47 46.5 111 46.5 q64 0 111 -47.5 q47 -47.5 47 -110.5 ZM309 543 q0 54 -40 94.5 q-40 40.5 -95 40.5 q-55 0 -95 -39.5 q-40 -39.5 -40 -95.5 q0 -57 39.5 -96 q39.5 -39 95.5 -39 q56 0 95.5 40 q39.5 40 39.5 95 ZM251 459 l-34 0 l-37 73 l-33 0 l0 -73 l-32 0 l0 176 l61 0 q6 0 12 -0.5 q6 -0.5 12 -1.5 q19 -4 35 -15 q16 -11 16 -31 q0 -19 -11 -31.5 q-11 -12.5 -28 -17.5 l39 -79 ZM212 583 q0 11 -9 18 q-9 7 -20 9 q-3 1 -6.5 1.5 q-3.5 0.5 -6.5 0.5 l-23 0 l0 -56 l34 0 q13 0 22 7 q9 7 9 20 Z" /><glyph glyph-name="copyright" unicode="©" d="M706 344 q0 -138 -100 -237.5 q-100 -99.5 -238 -99.5 q-139 0 -238 99 q-99 99 -99 238 q0 139 99 238.5 q99 99.5 238 99.5 q138 0 238 -100 q100 -100 100 -238 ZM642 344 q0 113 -80.5 194 q-80.5 81 -193.5 81 q-113 0 -193.5 -81 q-80.5 -81 -80.5 -194 q0 -114 80.5 -194 q80.5 -80 193.5 -80 q113 0 193.5 81 q80.5 81 80.5 193 ZM533 269 q-13 -54 -57 -87.5 q-44 -33.5 -100 -33.5 q-88 0 -136 51.5 q-48 51.5 -48 137.5 q0 89 46 141 q46 52 137 52 q53 0 94 -27 q41 -27 57 -78 l-54 -14 q-16 33 -39.5 51 q-23.5 18 -64.5 18 q-61 0 -88.5 -42.5 q-27.5 -42.5 -27.5 -98.5 q0 -59 27 -99 q27 -40 91 -40 q38 0 69.5 24.5 q31.5 24.5 38.5 61.5 l55 -17 Z" /><glyph glyph-name="trademark" unicode="&#x2122;" d="" /><glyph glyph-name="acute" unicode="´" d="M274 686 l-219 -69 l-12 39 l193 153 l38 -123 Z" /><glyph glyph-name="dieresis" unicode="¨" d="M139 735 q0 -19 -13.5 -33 q-13.5 -14 -33.5 -14 q-19 0 -33 14 q-14 14 -14 33 q0 19 14 33 q14 14 33 14 q20 0 33.5 -14 q13.5 -14 13.5 -33 ZM261 735 q0 -19 -13.5 -33 q-13.5 -14 -32.5 -14 q-19 0 -33 14 q-14 14 -14 33 q0 19 14 33 q14 14 33 14 q19 0 32.5 -14 q13.5 -14 13.5 -33 Z" /><glyph glyph-name="notequal" unicode="&#x2260;" d="" /><glyph glyph-name="AE" unicode="æ" d="M995 236 l-292 0 l0 -24 l211 0 l0 -212 l-424 0 l0 60 l-192 0 l-39 -60 l-236 0 l188 310 q15 27 27.5 60.5 q12.5 33.5 19.5 68.5 q2 12 3 24 q1 12 1 24 q0 48 -23.5 86 q-23.5 38 -82.5 48 q-4 1 -9.5 1 q-5.5 0 -10.5 0 q-13 0 -25 -2.5 q-12 -2.5 -22 -10.5 q-11 -9 -18.5 -24 q-7.5 -15 -8.5 -32 q-1 -2 -1 -4.5 q0 -2.5 0 -4.5 q1 -21 11.5 -36.5 q10.5 -15.5 33.5 -17.5 q12 -1 18 5.5 q6 6.5 6 15.5 q0 5 -1.5 9.5 q-1.5 4.5 -5.5 8.5 q-4 5 -6 10.5 q-2 5.5 -2 10.5 q0 12 9 20.5 q9 8.5 20 8.5 q2 0 4 -0.5 q2 -0.5 4 -0.5 q4 -2 8.5 -4.5 q4.5 -2.5 7.5 -6.5 q8 -10 13 -20.5 q5 -10.5 7 -21.5 q0 -3 0.5 -6.5 q0.5 -3.5 0.5 -7.5 q0 -32 -23.5 -57 q-23.5 -25 -61.5 -23 q-52 2 -77 38 q-25 36 -25 79 q0 2 0 3.5 q0 1.5 0 3.5 q1 29 14 56 q13 27 36 45 q22 17 45 24 q23 7 47 7 q6 0 12 -0.5 q6 -0.5 12 -0.5 q5 -1 11 -2 q6 -1 12 -3 q68 -18 103.5 -65.5 q35.5 -47.5 45.5 -109.5 l110 178 l464 0 l0 -213 l-211 0 l0 -23 l292 0 l0 -212 ZM490 272 l0 93 l-58 -93 l58 0 Z" /><glyph glyph-name="Oslash" unicode="ø" d="M769 342 q0 -151 -107.5 -258 q-107.5 -107 -258.5 -107 q-68 0 -129 23 q-61 23 -109 64 l-55 -55 l-41 41 l55 55 q-40 48 -63.5 109 q-23.5 61 -23.5 128 q0 152 107.5 259.5 q107.5 107.5 258.5 107.5 q68 0 128.5 -23.5 q60.5 -23.5 108.5 -64.5 l55 55 l41 -41 l-55 -55 q41 -48 64.5 -109 q23.5 -61 23.5 -129 ZM557 342 q0 24 -7 46 q-7 22 -20 41 l-213 -214 q18 -13 40 -19.5 q22 -6.5 46 -6.5 q63 0 108.5 45 q45.5 45 45.5 108 ZM489 470 q-19 12 -40.5 19 q-21.5 7 -45.5 7 q-64 0 -109 -45 q-45 -45 -45 -109 q0 -23 7 -45 q7 -22 20 -41 l213 214 Z" /><glyph glyph-name="infinity" unicode="&#x221e;" d="" /><glyph glyph-name="plusminus" unicode="±" d="" /><glyph glyph-name="lessequal" unicode="&#x2264;" d="" /><glyph glyph-name="greaterequal" unicode="&#x2265;" d="" /><glyph glyph-name="yen" unicode="¥" d="M662 634 l-152 -265 l73 0 l0 -47 l-101 0 l-21 -36 l122 0 l0 -47 l-148 0 l0 -239 l-177 0 l0 239 l-147 0 l0 47 l121 0 l-21 36 l-100 0 l0 47 l73 0 l-152 265 l153 88 l162 -280 l161 280 l154 -88 Z" /><glyph glyph-name="mu" unicode="µ" d="" /><glyph glyph-name="partialdiff" unicode="&#x2202;" d="" /><glyph glyph-name="summation" unicode="&#x3a3;" d="" /><glyph glyph-name="product" unicode="&#x220f;" d="" /><glyph glyph-name="pi" unicode="&#x3c0;" d="" /><glyph glyph-name="integral" unicode="&#x222b;" d="" /><glyph glyph-name="ordfeminine" unicode="ª" d="M456 318 l-123 0 l-17 30 l-155 0 l-17 -30 l-123 0 l93 161 q8 14 14 32 q6 18 8 37 q1 4 1 7.5 q0 3.5 0 7.5 q-1 26 -13 47 q-12 21 -44 27 q-1 0 -2.5 0.5 q-1.5 0.5 -2.5 0.5 q-1 0 -2.5 0 q-1.5 0 -2.5 0 q-7 0 -13 -1.5 q-6 -1.5 -11 -5.5 q-5 -4 -9 -11.5 q-4 -7.5 -5 -15.5 q0 -1 0 -2.5 q0 -1.5 0 -2.5 q0 -10 5.5 -18.5 q5.5 -8.5 17.5 -9.5 q6 0 9 4 q3 4 2 8 q0 1 0 2 q0 1 -1 2 q0 1 -0.5 2 q-0.5 1 -1.5 2 q-2 3 -3.5 6 q-1.5 3 -0.5 5 q0 6 4.5 10 q4.5 4 10.5 4 q3 0 6 -1.5 q3 -1.5 6 -4.5 q5 -7 7.5 -13.5 q2.5 -6.5 2.5 -14.5 q0 -16 -11.5 -28.5 q-11.5 -12.5 -31.5 -11.5 q-25 2 -38 19.5 q-13 17.5 -13 39.5 q0 2 0 3.5 q0 1.5 0 3.5 q2 13 8.5 25.5 q6.5 12.5 17.5 21.5 q7 6 14.5 9 q7.5 3 15.5 5 q4 0 7.5 0.5 q3.5 0.5 7.5 0.5 q6 0 12 -0.5 q6 -0.5 12 -2.5 q35 -9 52.5 -32.5 q17.5 -23.5 22.5 -55.5 l66 116 l218 -377 ZM254 454 l-16 28 l-16 -28 l32 0 Z" /><glyph glyph-name="ordmasculine" unicode="º" d="M365 506 q0 -76 -54 -130 q-54 -54 -129 -54 q-76 0 -129 54 q-53 54 -53 130 q0 75 53 129 q53 54 129 54 q75 0 129 -54 q54 -54 54 -129 ZM259 506 q0 32 -22.5 54 q-22.5 22 -54.5 22 q-32 0 -54.5 -22 q-22.5 -22 -22.5 -54 q0 -32 22.5 -54.5 q22.5 -22.5 54.5 -22.5 q32 0 54.5 22.5 q22.5 22.5 22.5 54.5 Z" /><glyph glyph-name="Omega" unicode="&#x3a9;" d="" /><glyph glyph-name="ae" unicode="æ" d="M995 236 l-292 0 l0 -24 l211 0 l0 -212 l-424 0 l0 60 l-192 0 l-39 -60 l-236 0 l188 310 q15 27 27.5 60.5 q12.5 33.5 19.5 68.5 q2 12 3 24 q1 12 1 24 q0 48 -23.5 86 q-23.5 38 -82.5 48 q-4 1 -9.5 1 q-5.5 0 -10.5 0 q-13 0 -25 -2.5 q-12 -2.5 -22 -10.5 q-11 -9 -18.5 -24 q-7.5 -15 -8.5 -32 q-1 -2 -1 -4.5 q0 -2.5 0 -4.5 q1 -21 11.5 -36.5 q10.5 -15.5 33.5 -17.5 q12 -1 18 5.5 q6 6.5 6 15.5 q0 5 -1.5 9.5 q-1.5 4.5 -5.5 8.5 q-4 5 -6 10.5 q-2 5.5 -2 10.5 q0 12 9 20.5 q9 8.5 20 8.5 q2 0 4 -0.5 q2 -0.5 4 -0.5 q4 -2 8.5 -4.5 q4.5 -2.5 7.5 -6.5 q8 -10 13 -20.5 q5 -10.5 7 -21.5 q0 -3 0.5 -6.5 q0.5 -3.5 0.5 -7.5 q0 -32 -23.5 -57 q-23.5 -25 -61.5 -23 q-52 2 -77 38 q-25 36 -25 79 q0 2 0 3.5 q0 1.5 0 3.5 q1 29 14 56 q13 27 36 45 q22 17 45 24 q23 7 47 7 q6 0 12 -0.5 q6 -0.5 12 -0.5 q5 -1 11 -2 q6 -1 12 -3 q68 -18 103.5 -65.5 q35.5 -47.5 45.5 -109.5 l110 178 l464 0 l0 -213 l-211 0 l0 -23 l292 0 l0 -212 ZM490 272 l0 93 l-58 -93 l58 0 Z" /><glyph glyph-name="oslash" unicode="ø" d="M675 382 q0 -133 -94.5 -227 q-94.5 -94 -227.5 -94 q-60 0 -114 20.5 q-54 20.5 -96 57.5 l-42 -42 l-32 32 l42 42 q-37 43 -58 97 q-21 54 -21 114 q0 133 94 227 q94 94 227 94 q61 0 114.5 -21 q53.5 -21 96.5 -58 l42 43 l32 -32 l-42 -43 q37 -42 58 -96 q21 -54 21 -114 ZM462 382 q0 17 -4.5 31.5 q-4.5 14.5 -12.5 27.5 l-151 -150 q13 -9 28 -13.5 q15 -4.5 31 -4.5 q45 0 77 32 q32 32 32 77 ZM413 473 q-13 8 -28 13 q-15 5 -32 5 q-45 0 -76.5 -32 q-31.5 -32 -31.5 -77 q0 -16 4.5 -31 q4.5 -15 12.5 -28 l151 150 Z" /><glyph glyph-name="questiondown" unicode="¿" d="M436 65 q4 -13 5.5 -26.5 q1.5 -13.5 1.5 -27.5 q0 -51 -24.5 -98 q-24.5 -47 -68.5 -77 q-27 -19 -57 -27.5 q-30 -8.5 -61 -8.5 q-51 0 -98 23.5 q-47 23.5 -77 68.5 q-18 27 -27 57 q-9 30 -9 60 q0 38 13.5 74 q13.5 36 38.5 66 q20 23 39.5 45 q19.5 22 38.5 44 q2 2 4 4 q2 2 4 4 q2 3 4 6.5 q2 3.5 2 8.5 q0 7 0 11 q0 4 0 7 q0 3 0 7 q0 4 0 11 l38 0 q-20 15 -32.5 38 q-12.5 23 -12.5 50 q0 45 32 77 q32 32 77 32 q45 0 77 -32 q32 -32 32 -77 q0 -27 -12 -50 q-12 -23 -32 -38 l45 0 q0 -13 0 -26.5 q0 -13.5 0 -27.5 q0 -53 -21 -85.5 q-21 -32.5 -47 -61.5 q-13 -14 -25.5 -28.5 q-12.5 -14.5 -24.5 -28.5 q-6 -7 -12.5 -14.5 q-6.5 -7.5 -12.5 -14.5 l202 55 ZM233 10 q-1 -1 -1.5 -1 q-0.5 0 -0.5 1 q0 0 0 0 q0 0 0 1 q0 0 0.5 0 q0.5 0 0.5 0 q0 0 0.5 0 q0.5 0 0.5 0 q0 0 0 0 q0 0 0 0 q0 -1 0 -1 q0 0 0 0 Z" /><glyph glyph-name="exclamdown" unicode="¡" d="M226 -199 l-216 0 l14 451 l189 0 l13 -451 ZM227 389 q0 -45 -32 -77 q-32 -32 -77 -32 q-45 0 -77 32 q-32 32 -32 77 q0 45 32 77 q32 32 77 32 q45 0 77 -32 q32 -32 32 -77 Z" /><glyph glyph-name="logicalnot" unicode="¬" d="" /><glyph glyph-name="radical" unicode="&#x221a;" d="" /><glyph glyph-name="florin" unicode="&#x192;" d="" /><glyph glyph-name="approxequal" unicode="&#x2248;" d="" /><glyph glyph-name="Delta" unicode="&#x2206;" d="" /><glyph glyph-name="guillemotleft" unicode="«" d="M194 138 l-173 177 l173 170 l0 -101 l-72 -71 l72 -73 l0 -102 ZM354 138 l-172 177 l172 170 l0 -101 l-72 -71 l72 -73 l0 -102 Z" /><glyph glyph-name="guillemotright" unicode="»" d="M198 315 l-174 -175 l0 100 l72 73 l-72 71 l0 101 l174 -170 ZM358 315 l-174 -175 l0 100 l72 73 l-72 71 l0 101 l174 -170 Z" /><glyph glyph-name="ellipsis" unicode="&#x2026;" d="M265 97 q0 -45 -32 -76.5 q-32 -31.5 -77 -31.5 q-45 0 -77 31.5 q-32 31.5 -32 76.5 q0 45 32 77 q32 32 77 32 q45 0 77 -32 q32 -32 32 -77 ZM505 97 q0 -45 -32 -76.5 q-32 -31.5 -77 -31.5 q-45 0 -77 31.5 q-32 31.5 -32 76.5 q0 45 32 77 q32 32 77 32 q45 0 77 -32 q32 -32 32 -77 ZM745 97 q0 -45 -32 -76.5 q-32 -31.5 -77 -31.5 q-45 0 -77 31.5 q-32 31.5 -32 76.5 q0 45 32 77 q32 32 77 32 q45 0 77 -32 q32 -32 32 -77 Z" /><glyph glyph-name="Agrave" unicode="à" d="M870 0 l-245 0 l-35 59 l-309 0 l-34 -59 l-246 0 l343 594 l92 160 l92 -160 l41 -72 q10 62 45.5 109.5 q35.5 47.5 104.5 65.5 q12 3 24 5 q12 2 23 2 q24 0 46.5 -7.5 q22.5 -7.5 44.5 -23.5 q24 -18 37 -45.5 q13 -27.5 14 -57.5 q0 -2 0 -3.5 q0 -1.5 0 -3.5 q0 -43 -25.5 -78.5 q-25.5 -35.5 -76.5 -37.5 q-39 -1 -62.5 24 q-23.5 25 -23.5 57 q0 4 0.5 7.5 q0.5 3.5 0.5 6.5 q2 11 7 21.5 q5 10.5 13 20.5 q5 7 11.5 9.5 q6.5 2.5 13.5 2.5 q11 0 20 -8.5 q9 -8.5 9 -20.5 q0 -5 -2 -10.5 q-2 -5.5 -7 -10.5 q-4 -4 -5.5 -9.5 q-1.5 -5.5 -1.5 -10.5 q1 -8 7 -14.5 q6 -6.5 17 -5.5 q24 2 34.5 18 q10.5 16 10.5 37 q0 1 0 2.5 q0 1.5 0 2.5 q-1 18 -8.5 34 q-7.5 16 -19.5 25 q-10 8 -22 11 q-12 3 -25 3 q-5 0 -10 -0.5 q-5 -0.5 -10 -1.5 q-60 -10 -85.5 -51 q-25.5 -41 -25.5 -97 q0 -20 3 -41 q3 -21 8 -43 q5 -21 13 -42 q8 -21 18 -41 l186 -322 ZM468 272 l-32 56 l-33 -56 l65 0 ZM522 800 l-12 -39 l-219 69 l38 123 l193 -153 Z" /><glyph glyph-name="Atilde" unicode="ã" d="M870 0 l-245 0 l-35 59 l-309 0 l-34 -59 l-246 0 l343 594 l92 160 l92 -160 l41 -72 q10 62 45.5 109.5 q35.5 47.5 104.5 65.5 q12 3 24 5 q12 2 23 2 q24 0 46.5 -7.5 q22.5 -7.5 44.5 -23.5 q24 -18 37 -45.5 q13 -27.5 14 -57.5 q0 -2 0 -3.5 q0 -1.5 0 -3.5 q0 -43 -25.5 -78.5 q-25.5 -35.5 -76.5 -37.5 q-39 -1 -62.5 24 q-23.5 25 -23.5 57 q0 4 0.5 7.5 q0.5 3.5 0.5 6.5 q2 11 7 21.5 q5 10.5 13 20.5 q5 7 11.5 9.5 q6.5 2.5 13.5 2.5 q11 0 20 -8.5 q9 -8.5 9 -20.5 q0 -5 -2 -10.5 q-2 -5.5 -7 -10.5 q-4 -4 -5.5 -9.5 q-1.5 -5.5 -1.5 -10.5 q1 -8 7 -14.5 q6 -6.5 17 -5.5 q24 2 34.5 18 q10.5 16 10.5 37 q0 1 0 2.5 q0 1.5 0 2.5 q-1 18 -8.5 34 q-7.5 16 -19.5 25 q-10 8 -22 11 q-12 3 -25 3 q-5 0 -10 -0.5 q-5 -0.5 -10 -1.5 q-60 -10 -85.5 -51 q-25.5 -41 -25.5 -97 q0 -20 3 -41 q3 -21 8 -43 q5 -21 13 -42 q8 -21 18 -41 l186 -322 ZM468 272 l-32 56 l-33 -56 l65 0 ZM612 803 q-2 -2 -4 -3.5 q-2 -1.5 -4 -3.5 q-18 -17 -38.5 -30.5 q-20.5 -13.5 -48.5 -13.5 q-18 0 -34 6.5 q-16 6.5 -32 13.5 q-3 2 -7 3.5 q-4 1.5 -7 3.5 q-8 4 -16.5 7.5 q-8.5 3.5 -16.5 5.5 q-4 1 -8.5 1.5 q-4.5 0.5 -8.5 0.5 q-7 0 -13.5 -1.5 q-6.5 -1.5 -13.5 -6.5 q-6 -4 -11 -9.5 q-5 -5.5 -10 -11.5 q0 0 -0.5 -0.5 q-0.5 -0.5 -0.5 -0.5 q-3 -3 -5.5 -6 q-2.5 -3 -5.5 -6 l-34 63 q16 23 40 40.5 q24 17.5 55 17.5 q2 0 4 0 q2 0 4 0 q2 0 4 -0.5 q2 -0.5 4 -0.5 q14 -2 27 -8 q13 -6 26 -12 q0 0 0.5 -0.5 q0.5 -0.5 0.5 -0.5 q13 -6 25.5 -11.5 q12.5 -5.5 26.5 -8.5 q3 -1 5.5 -1 q2.5 0 4.5 0 q18 0 32.5 10.5 q14.5 10.5 23.5 22.5 q1 1 2 2.5 q1 1.5 2 2.5 l32 -65 Z" /><glyph glyph-name="Otilde" unicode="õ" d="M737 343 q0 -151 -107.5 -258.5 q-107.5 -107.5 -258.5 -107.5 q-151 0 -258.5 107.5 q-107.5 107.5 -107.5 258.5 q0 151 107.5 258.5 q107.5 107.5 258.5 107.5 q151 0 258.5 -107.5 q107.5 -107.5 107.5 -258.5 ZM525 343 q0 63 -45.5 108 q-45.5 45 -108.5 45 q-64 0 -109 -45 q-45 -45 -45 -108 q0 -64 45 -109 q45 -45 109 -45 q63 0 108.5 45 q45.5 45 45.5 109 ZM552 773 q-2 -2 -4 -3.5 q-2 -1.5 -4 -3.5 q-18 -17 -38.5 -30.5 q-20.5 -13.5 -48.5 -13.5 q-18 0 -34 6.5 q-16 6.5 -32 13.5 q-3 2 -7 3.5 q-4 1.5 -7 3.5 q-8 4 -16.5 7.5 q-8.5 3.5 -16.5 5.5 q-4 1 -8.5 1.5 q-4.5 0.5 -8.5 0.5 q-7 0 -13.5 -1.5 q-6.5 -1.5 -13.5 -6.5 q-6 -4 -11 -9.5 q-5 -5.5 -10 -11.5 q0 0 -0.5 -0.5 q-0.5 -0.5 -0.5 -0.5 q-3 -3 -5.5 -6 q-2.5 -3 -5.5 -6 l-34 63 q16 23 40 40.5 q24 17.5 55 17.5 q2 0 4 0 q2 0 4 0 q2 0 4 -0.5 q2 -0.5 4 -0.5 q14 -2 27 -8 q13 -6 26 -12 q0 0 0.5 -0.5 q0.5 -0.5 0.5 -0.5 q13 -6 25.5 -11.5 q12.5 -5.5 26.5 -8.5 q3 -1 5.5 -1 q2.5 0 4.5 0 q18 0 32.5 10.5 q14.5 10.5 23.5 22.5 q1 1 2 2.5 q1 1.5 2 2.5 l32 -65 Z" /><glyph glyph-name="OE" unicode="&#x152;" d="M1031 236 l-245 0 l0 -24 l164 0 l0 -212 l-377 0 l0 12 q-36 -16 -75.5 -25.5 q-39.5 -9.5 -82.5 -9.5 q-151 0 -258.5 107 q-107.5 107 -107.5 258 q0 152 107.5 259.5 q107.5 107.5 258.5 107.5 q43 0 82.5 -9.5 q39.5 -9.5 75.5 -26.5 l0 11 l377 0 l0 -213 l-164 0 l0 -23 l245 0 l0 -212 ZM569 342 q0 64 -45 109 q-45 45 -109 45 q-63 0 -108.5 -45 q-45.5 -45 -45.5 -109 q0 -63 45.5 -108 q45.5 -45 108.5 -45 q64 0 109 45 q45 45 45 108 Z" /><glyph glyph-name="oe" unicode="&#x153;" d="M1031 236 l-245 0 l0 -24 l164 0 l0 -212 l-377 0 l0 12 q-36 -16 -75.5 -25.5 q-39.5 -9.5 -82.5 -9.5 q-151 0 -258.5 107 q-107.5 107 -107.5 258 q0 152 107.5 259.5 q107.5 107.5 258.5 107.5 q43 0 82.5 -9.5 q39.5 -9.5 75.5 -26.5 l0 11 l377 0 l0 -213 l-164 0 l0 -23 l245 0 l0 -212 ZM569 342 q0 64 -45 109 q-45 45 -109 45 q-63 0 -108.5 -45 q-45.5 -45 -45.5 -109 q0 -63 45.5 -108 q45.5 -45 108.5 -45 q64 0 109 45 q45 45 45 108 Z" /><glyph glyph-name="emdash" unicode="&#x2014;" d="M844 280 l-848 0 l0 145 l848 0 l0 -145 Z" /><glyph glyph-name="quotedblleft" unicode="&#x201c;" d="M199 699 l-85 -154 l-104 38 l85 153 l104 -37 ZM349 699 l-85 -154 l-104 38 l85 153 l104 -37 Z" /><glyph glyph-name="quotedblright" unicode="&#x201d;" d="M199 699 l-85 -154 l-104 38 l85 153 l104 -37 ZM349 699 l-85 -154 l-104 38 l85 153 l104 -37 Z" /><glyph glyph-name="quoteleft" unicode="&#x2018;" d="M199 699 l-85 -154 l-104 38 l85 153 l104 -37 Z" /><glyph glyph-name="quoteright" unicode="&#x2019;" d="M199 699 l-85 -154 l-104 38 l85 153 l104 -37 Z" /><glyph glyph-name="divide" unicode="÷" d="" /><glyph glyph-name="lozenge" unicode="&#x25ca;" d="" /><glyph glyph-name="ydieresis" unicode="ÿ" d="M702 685 l-244 -424 l0 -261 l-212 0 l0 261 l-244 424 l245 0 l105 -182 l105 182 l245 0 ZM349 735 q0 -19 -13.5 -33 q-13.5 -14 -33.5 -14 q-19 0 -33 14 q-14 14 -14 33 q0 19 14 33 q14 14 33 14 q20 0 33.5 -14 q13.5 -14 13.5 -33 ZM471 735 q0 -19 -13.5 -33 q-13.5 -14 -32.5 -14 q-19 0 -33 14 q-14 14 -14 33 q0 19 14 33 q14 14 33 14 q19 0 32.5 -14 q13.5 -14 13.5 -33 Z" /><glyph glyph-name="Ydieresis" unicode="&#x178;" d="M702 685 l-244 -424 l0 -261 l-212 0 l0 261 l-244 424 l245 0 l105 -182 l105 182 l245 0 ZM339 735 q0 -19 -13.5 -33 q-13.5 -14 -33.5 -14 q-19 0 -33 14 q-14 14 -14 33 q0 19 14 33 q14 14 33 14 q20 0 33.5 -14 q13.5 -14 13.5 -33 ZM461 735 q0 -19 -13.5 -33 q-13.5 -14 -32.5 -14 q-19 0 -33 14 q-14 14 -14 33 q0 19 14 33 q14 14 33 14 q19 0 32.5 -14 q13.5 -14 13.5 -33 Z" /><glyph glyph-name="fraction" unicode="&#x2215;" d="" /><glyph glyph-name="currency" unicode="&#x20ac;" d="M501 671 l-41 -171 q-9 2 -18 3 q-9 1 -19 1 q-47 0 -88.5 -27 q-41.5 -27 -59.5 -72 l202 0 l-27 -47 l-186 0 q-1 -9 -0.5 -18 q0.5 -9 1.5 -18 l164 0 l-27 -48 l-122 0 q20 -40 59 -64 q39 -24 84 -24 q8 0 15.5 1 q7.5 1 14.5 2 l-43 -179 q-115 4 -203.5 78 q-88.5 74 -112.5 186 l-70 0 l27 48 l36 0 q-1 9 -1 18 q0 9 0 18 l-62 0 l27 47 l41 0 q22 123 117.5 199.5 q95.5 76.5 213.5 75.5 q20 0 39.5 -2 q19.5 -2 38.5 -7 Z" /><glyph glyph-name="guilsinglleft" unicode="&#x2039;" d="M191 138 l-173 177 l173 170 l0 -101 l-72 -71 l72 -73 l0 -102 Z" /><glyph glyph-name="guilsinglright" unicode="&#x203a;" d="M199 315 l-174 -175 l0 100 l72 73 l-72 71 l0 101 l174 -170 Z" /><glyph glyph-name="fi" unicode="&#xf001;" d="" /><glyph glyph-name="fl" unicode="&#xf002;" d="" /><glyph glyph-name="daggerdbl" unicode="&#x2021;" d="" /><glyph glyph-name="middot.001" unicode="&#x2219;" d="M269 307 q0 -45 -32 -77 q-32 -32 -77 -32 q-45 0 -77 32 q-32 32 -32 77 q0 45 32 77 q32 32 77 32 q45 0 77 -32 q32 -32 32 -77 Z" /><glyph glyph-name="quotesinglbase" unicode="&#x201a;" d="M199 49 l-85 -154 l-104 38 l85 153 l104 -37 Z" /><glyph glyph-name="quotedblbase" unicode="&#x201e;" d="M199 49 l-85 -154 l-104 38 l85 153 l104 -37 ZM349 49 l-85 -154 l-104 38 l85 153 l104 -37 Z" /><glyph glyph-name="perthousand" unicode="&#x2030;" d="" /><glyph glyph-name="Acircumflex" unicode="â" d="M870 0 l-245 0 l-35 59 l-309 0 l-34 -59 l-246 0 l343 594 l92 160 l92 -160 l41 -72 q10 62 45.5 109.5 q35.5 47.5 104.5 65.5 q12 3 24 5 q12 2 23 2 q24 0 46.5 -7.5 q22.5 -7.5 44.5 -23.5 q24 -18 37 -45.5 q13 -27.5 14 -57.5 q0 -2 0 -3.5 q0 -1.5 0 -3.5 q0 -43 -25.5 -78.5 q-25.5 -35.5 -76.5 -37.5 q-39 -1 -62.5 24 q-23.5 25 -23.5 57 q0 4 0.5 7.5 q0.5 3.5 0.5 6.5 q2 11 7 21.5 q5 10.5 13 20.5 q5 7 11.5 9.5 q6.5 2.5 13.5 2.5 q11 0 20 -8.5 q9 -8.5 9 -20.5 q0 -5 -2 -10.5 q-2 -5.5 -7 -10.5 q-4 -4 -5.5 -9.5 q-1.5 -5.5 -1.5 -10.5 q1 -8 7 -14.5 q6 -6.5 17 -5.5 q24 2 34.5 18 q10.5 16 10.5 37 q0 1 0 2.5 q0 1.5 0 2.5 q-1 18 -8.5 34 q-7.5 16 -19.5 25 q-10 8 -22 11 q-12 3 -25 3 q-5 0 -10 -0.5 q-5 -0.5 -10 -1.5 q-60 -10 -85.5 -51 q-25.5 -41 -25.5 -97 q0 -20 3 -41 q3 -21 8 -43 q5 -21 13 -42 q8 -21 18 -41 l186 -322 ZM468 272 l-32 56 l-33 -56 l65 0 ZM569 757 l-86 0 l-48 19 l-48 -19 l-86 0 l134 109 l134 -109 Z" /><glyph glyph-name="Ecircumflex" unicode="ê" d="M508 235 l-292 0 l0 -23 l211 0 l0 -212 l-424 0 l0 684 l424 0 l0 -213 l-211 0 l0 -23 l292 0 l0 -213 ZM361 694 l-86 0 l-48 19 l-48 -19 l-86 0 l134 109 l134 -109 Z" /><glyph glyph-name="Aacute" unicode="á" d="M870 0 l-245 0 l-35 59 l-309 0 l-34 -59 l-246 0 l343 594 l92 160 l92 -160 l41 -72 q10 62 45.5 109.5 q35.5 47.5 104.5 65.5 q12 3 24 5 q12 2 23 2 q24 0 46.5 -7.5 q22.5 -7.5 44.5 -23.5 q24 -18 37 -45.5 q13 -27.5 14 -57.5 q0 -2 0 -3.5 q0 -1.5 0 -3.5 q0 -43 -25.5 -78.5 q-25.5 -35.5 -76.5 -37.5 q-39 -1 -62.5 24 q-23.5 25 -23.5 57 q0 4 0.5 7.5 q0.5 3.5 0.5 6.5 q2 11 7 21.5 q5 10.5 13 20.5 q5 7 11.5 9.5 q6.5 2.5 13.5 2.5 q11 0 20 -8.5 q9 -8.5 9 -20.5 q0 -5 -2 -10.5 q-2 -5.5 -7 -10.5 q-4 -4 -5.5 -9.5 q-1.5 -5.5 -1.5 -10.5 q1 -8 7 -14.5 q6 -6.5 17 -5.5 q24 2 34.5 18 q10.5 16 10.5 37 q0 1 0 2.5 q0 1.5 0 2.5 q-1 18 -8.5 34 q-7.5 16 -19.5 25 q-10 8 -22 11 q-12 3 -25 3 q-5 0 -10 -0.5 q-5 -0.5 -10 -1.5 q-60 -10 -85.5 -51 q-25.5 -41 -25.5 -97 q0 -20 3 -41 q3 -21 8 -43 q5 -21 13 -42 q8 -21 18 -41 l186 -322 ZM468 272 l-32 56 l-33 -56 l65 0 ZM619 836 l-219 -69 l-12 39 l193 153 l38 -123 Z" /><glyph glyph-name="Edieresis" unicode="ë" d="M508 235 l-292 0 l0 -23 l211 0 l0 -212 l-424 0 l0 684 l424 0 l0 -213 l-211 0 l0 -23 l292 0 l0 -213 ZM209 745 q0 -19 -13.5 -33 q-13.5 -14 -33.5 -14 q-19 0 -33 14 q-14 14 -14 33 q0 19 14 33 q14 14 33 14 q20 0 33.5 -14 q13.5 -14 13.5 -33 ZM331 745 q0 -19 -13.5 -33 q-13.5 -14 -32.5 -14 q-19 0 -33 14 q-14 14 -14 33 q0 19 14 33 q14 14 33 14 q19 0 32.5 -14 q13.5 -14 13.5 -33 Z" /><glyph glyph-name="Egrave" unicode="è" d="M508 235 l-292 0 l0 -23 l211 0 l0 -212 l-424 0 l0 684 l424 0 l0 -213 l-211 0 l0 -23 l292 0 l0 -213 ZM303 734 l-12 -39 l-219 69 l38 123 l193 -153 Z" /><glyph glyph-name="Iacute" unicode="í" d="M223 0 l-212 0 l0 685 l212 0 l0 -685 ZM322 770 l-219 -69 l-12 39 l193 153 l38 -123 Z" /><glyph glyph-name="Icircumflex" unicode="î" d="M223 0 l-212 0 l0 685 l212 0 l0 -685 ZM251 694 l-86 0 l-48 19 l-48 -19 l-86 0 l134 109 l134 -109 Z" /><glyph glyph-name="Idieresis" unicode="ï" d="M223 0 l-212 0 l0 685 l212 0 l0 -685 ZM99 745 q0 -19 -13.5 -33 q-13.5 -14 -33.5 -14 q-19 0 -33 14 q-14 14 -14 33 q0 19 14 33 q14 14 33 14 q20 0 33.5 -14 q13.5 -14 13.5 -33 ZM221 745 q0 -19 -13.5 -33 q-13.5 -14 -32.5 -14 q-19 0 -33 14 q-14 14 -14 33 q0 19 14 33 q14 14 33 14 q19 0 32.5 -14 q13.5 -14 13.5 -33 Z" /><glyph glyph-name="Igrave" unicode="ì" d="M223 0 l-212 0 l0 685 l212 0 l0 -685 ZM180 743 l-12 -39 l-219 69 l38 123 l193 -153 Z" /><glyph glyph-name="Oacute" unicode="ó" d="M737 343 q0 -151 -107.5 -258.5 q-107.5 -107.5 -258.5 -107.5 q-151 0 -258.5 107.5 q-107.5 107.5 -107.5 258.5 q0 151 107.5 258.5 q107.5 107.5 258.5 107.5 q151 0 258.5 -107.5 q107.5 -107.5 107.5 -258.5 ZM525 343 q0 63 -45.5 108 q-45.5 45 -108.5 45 q-64 0 -109 -45 q-45 -45 -45 -108 q0 -64 45 -109 q45 -45 109 -45 q63 0 108.5 45 q45.5 45 45.5 109 ZM580 797 l-219 -69 l-12 39 l193 153 l38 -123 Z" /><glyph glyph-name="Ocircumflex" unicode="ô" d="M737 343 q0 -151 -107.5 -258.5 q-107.5 -107.5 -258.5 -107.5 q-151 0 -258.5 107.5 q-107.5 107.5 -107.5 258.5 q0 151 107.5 258.5 q107.5 107.5 258.5 107.5 q151 0 258.5 -107.5 q107.5 -107.5 107.5 -258.5 ZM525 343 q0 63 -45.5 108 q-45.5 45 -108.5 45 q-64 0 -109 -45 q-45 -45 -45 -108 q0 -64 45 -109 q45 -45 109 -45 q63 0 108.5 45 q45.5 45 45.5 109 ZM501 724 l-86 0 l-48 19 l-48 -19 l-86 0 l134 109 l134 -109 Z" /><glyph glyph-name="apple" unicode="&#xf000;" d="" /><glyph glyph-name="Ograve" unicode="ò" d="" /><glyph glyph-name="Uacute" unicode="ú" d="M571 267 q0 -115 -82 -196.5 q-82 -81.5 -198 -81.5 q-57 0 -108.5 21.5 q-51.5 21.5 -89.5 59.5 q-38 38 -60.5 88.5 q-22.5 50.5 -22.5 108.5 l0 418 l212 0 l0 -418 q0 -13 5.5 -25.5 q5.5 -12.5 14.5 -21.5 q10 -9 22.5 -14.5 q12.5 -5.5 26.5 -5.5 q28 0 47.5 19.5 q19.5 19.5 19.5 47.5 l0 418 l213 0 l0 -418 ZM490 767 l-219 -69 l-12 39 l193 153 l38 -123 Z" /><glyph glyph-name="Ucircumflex" unicode="û" d="M571 267 q0 -115 -82 -196.5 q-82 -81.5 -198 -81.5 q-57 0 -108.5 21.5 q-51.5 21.5 -89.5 59.5 q-38 38 -60.5 88.5 q-22.5 50.5 -22.5 108.5 l0 418 l212 0 l0 -418 q0 -13 5.5 -25.5 q5.5 -12.5 14.5 -21.5 q10 -9 22.5 -14.5 q12.5 -5.5 26.5 -5.5 q28 0 47.5 19.5 q19.5 19.5 19.5 47.5 l0 418 l213 0 l0 -418 ZM431 694 l-86 0 l-48 19 l-48 -19 l-86 0 l134 109 l134 -109 Z" /><glyph glyph-name="Ugrave" unicode="ù" d="M571 267 q0 -115 -82 -196.5 q-82 -81.5 -198 -81.5 q-57 0 -108.5 21.5 q-51.5 21.5 -89.5 59.5 q-38 38 -60.5 88.5 q-22.5 50.5 -22.5 108.5 l0 418 l212 0 l0 -418 q0 -13 5.5 -25.5 q5.5 -12.5 14.5 -21.5 q10 -9 22.5 -14.5 q12.5 -5.5 26.5 -5.5 q28 0 47.5 19.5 q19.5 19.5 19.5 47.5 l0 418 l213 0 l0 -418 ZM363 737 l-12 -39 l-219 69 l38 123 l193 -153 Z" /><glyph glyph-name="dotlessi" unicode="&#x131;" d="" /><glyph glyph-name="circumflex" unicode="&#x2dc;" d="M281 694 l-86 0 l-48 19 l-48 -19 l-86 0 l134 109 l134 -109 Z" /><glyph glyph-name="tilde" unicode="&#x2c6;" d="M322 723 q-2 -2 -4 -3.5 q-2 -1.5 -4 -3.5 q-18 -17 -38.5 -30.5 q-20.5 -13.5 -48.5 -13.5 q-18 0 -34 6.5 q-16 6.5 -32 13.5 q-3 2 -7 3.5 q-4 1.5 -7 3.5 q-8 4 -16.5 7.5 q-8.5 3.5 -16.5 5.5 q-4 1 -8.5 1.5 q-4.5 0.5 -8.5 0.5 q-7 0 -13.5 -1.5 q-6.5 -1.5 -13.5 -6.5 q-6 -4 -11 -9.5 q-5 -5.5 -10 -11.5 q0 0 -0.5 -0.5 q-0.5 -0.5 -0.5 -0.5 q-3 -3 -5.5 -6 q-2.5 -3 -5.5 -6 l-34 63 q16 23 40 40.5 q24 17.5 55 17.5 q2 0 4 0 q2 0 4 0 q2 0 4 -0.5 q2 -0.5 4 -0.5 q14 -2 27 -8 q13 -6 26 -12 q0 0 0.5 -0.5 q0.5 -0.5 0.5 -0.5 q13 -6 25.5 -11.5 q12.5 -5.5 26.5 -8.5 q3 -1 5.5 -1 q2.5 0 4.5 0 q18 0 32.5 10.5 q14.5 10.5 23.5 22.5 q1 1 2 2.5 q1 1.5 2 2.5 l32 -65 Z" /><glyph glyph-name="macron" unicode="&#x2c9;" d="" /><glyph glyph-name="breve" unicode="&#x2d8;" d="M224 736 q-3 -6 -7.5 -12 q-4.5 -6 -9.5 -11 q-17 -16 -38 -24.5 q-21 -8.5 -44 -8.5 q-2 0 -4.5 0 q-2.5 0 -5.5 0 q-19 2 -37.5 10 q-18.5 8 -33.5 23 q-5 5 -9 11 q-4 6 -8 12 l55 54 q1 -7 4 -14 q3 -7 8 -12 q7 -7 15 -10.5 q8 -3.5 17 -2.5 q2 0 3.5 0 q1.5 0 3.5 0 q6 1 12.5 4.5 q6.5 3.5 11.5 8.5 q5 5 8.5 12 q3.5 7 4.5 14 l54 -54 Z" /><glyph glyph-name="dotaccent" unicode="&#x2d9;" d="M193 717 q0 -30 -21.5 -51.5 q-21.5 -21.5 -51.5 -21.5 q-30 0 -51.5 21.5 q-21.5 21.5 -21.5 51.5 q0 30 21.5 51.5 q21.5 21.5 51.5 21.5 q30 0 51.5 -21.5 q21.5 -21.5 21.5 -51.5 Z" /><glyph glyph-name="ring" unicode="&#x2da;" d="M195 727 q0 -31 -22.5 -53.5 q-22.5 -22.5 -54.5 -22.5 q-31 0 -54 22.5 q-23 22.5 -23 53.5 q0 32 23 54.5 q23 22.5 54 22.5 q32 0 54.5 -22.5 q22.5 -22.5 22.5 -54.5 ZM148 727 q0 13 -9 21.5 q-9 8.5 -21 8.5 q-12 0 -21 -8.5 q-9 -8.5 -9 -21.5 q0 -12 9 -20.5 q9 -8.5 21 -8.5 q12 0 21 8.5 q9 8.5 9 20.5 Z" /><glyph glyph-name="cedilla" unicode="¸" d="M236 -97 q0 -31 -38.5 -48.5 q-38.5 -17.5 -93.5 -17.5 q-8 0 -15.5 0.5 q-7.5 0.5 -15.5 1.5 l18 37 q2 1 3 1 q1 0 3 -1 q1 0 2.5 0 q1.5 0 2.5 0 q21 0 35 8.5 q14 8.5 14 20.5 q-3 14 -11.5 19.5 q-8.5 5.5 -21.5 8.5 q-7 3 -15.5 5 q-8.5 2 -17.5 6 l34 86 l49 -15 l-19 -47 q38 -5 62.5 -22 q24.5 -17 24.5 -42 l0 -1 Z" /><glyph glyph-name="hungarumlaut" unicode="&#x2ba;" d="M234 772 l-116 -106 l-23 12 l40 80 l-100 -92 l-24 12 l65 131 l68 -33 l16 33 l74 -37 Z" /><glyph glyph-name="ogonek" unicode="&#x2db;" d="" /><glyph glyph-name="caron" unicode="&#x2c7;" d="M281 786 l-134 -109 l-134 109 l86 0 l48 -19 l48 19 l86 0 Z" /><glyph glyph-name="Lslash" unicode="&#x141;" d="" /><glyph glyph-name="lslash" unicode="&#x142;" d="" /><glyph glyph-name="Scaron" unicode="&#x160;" d="M456 685 l-189 -189 q-6 -6 -10 -14.5 q-4 -8.5 -6 -17.5 q0 -2 0 -3.5 q0 -1.5 0 -3.5 q0 -11 4 -21.5 q4 -10.5 12 -18.5 l34 -34 q37 -37 57 -83 q20 -46 22 -95 q0 -2 0 -5 q0 -3 0 -6 q0 -52 -19.5 -101.5 q-19.5 -49.5 -59.5 -88.5 l-3 -3 l-300 0 l153 153 q8 8 12 18.5 q4 10.5 4 21.5 q0 2 0 3.5 q0 1.5 0 3.5 q-1 9 -5 17.5 q-4 8.5 -11 14.5 l-33 34 q-40 39 -59.5 88.5 q-19.5 49.5 -19.5 101.5 q0 3 0 6 q0 3 0 6 q2 48 21.5 94.5 q19.5 46.5 56.5 83.5 l38 38 l301 0 ZM431 806 l-134 -109 l-134 109 l86 0 l48 -19 l48 19 l86 0 Z" /><glyph glyph-name="scaron" unicode="&#x161;" d="M517 610 l-150 -151 q-10 11 -23 17 q-13 6 -27 8 q-2 0 -4.5 0 q-2.5 0 -4.5 0 q-16 0 -32 -6 q-16 -6 -28 -19 q-12 -12 -18 -27 q-6 -15 -6 -32 q0 -16 6 -32 q6 -16 18 -28 l37 -37 q28 -28 41.5 -62.5 q13.5 -34.5 13.5 -70.5 q0 -36 -14 -70.5 q-14 -34.5 -41 -62.5 q-28 -28 -62.5 -41 q-34.5 -13 -70.5 -13 q-3 0 -5.5 0 q-2.5 0 -5.5 0 q-33 2 -65 15 q-32 13 -58 39 l117 116 q-4 3 -7.5 6.5 q-3.5 3.5 -7.5 7.5 q-2 2 -4 4 q-2 2 -4 4 q-3 4 -7 8 q-4 4 -7 8 q-43 44 -65 98 q-22 54 -22 111 q0 57 22 112 q22 55 65 98 q44 43 98.5 64.5 q54.5 21.5 111.5 21.5 q57 0 111.5 -21.5 q54.5 -21.5 97.5 -64.5 ZM431 816 l-134 -109 l-134 109 l86 0 l48 -19 l48 19 l86 0 Z" /><glyph glyph-name="Zcaron" unicode="&#x17d;" d="" /><glyph glyph-name="zcaron" unicode="&#x17e;" d="" /><glyph glyph-name="brokenbar" unicode="¦" d="" /><glyph glyph-name="Eth" unicode="ð" d="M722 342 q0 -141 -100.5 -241.5 q-100.5 -100.5 -241.5 -100.5 l-279 0 l0 309 l-67 0 l0 66 l67 0 l0 309 q70 0 139.5 0 q69.5 0 139.5 0 q140 0 241 -100.5 q101 -100.5 101 -241.5 ZM472 250 q15 15 24 33 q9 18 12 36 q1 5 1.5 10.5 q0.5 5.5 0.5 10.5 q-1 50 -36.5 90.5 q-35.5 40.5 -93.5 40.5 l-67 0 l0 -96 l66 0 l0 -66 l-66 0 l0 -97 q5 0 10 0 q5 0 11 0 q37 -1 72.5 3.5 q35.5 4.5 65.5 34.5 Z" /><glyph glyph-name="eth" unicode="ð" d="M722 342 q0 -141 -100.5 -241.5 q-100.5 -100.5 -241.5 -100.5 l-279 0 l0 309 l-67 0 l0 66 l67 0 l0 309 q70 0 139.5 0 q69.5 0 139.5 0 q140 0 241 -100.5 q101 -100.5 101 -241.5 ZM472 250 q15 15 24 33 q9 18 12 36 q1 5 1.5 10.5 q0.5 5.5 0.5 10.5 q-1 50 -36.5 90.5 q-35.5 40.5 -93.5 40.5 l-67 0 l0 -96 l66 0 l0 -66 l-66 0 l0 -97 q5 0 10 0 q5 0 11 0 q37 -1 72.5 3.5 q35.5 4.5 65.5 34.5 Z" /><glyph glyph-name="Yacute" unicode="ý" d="" /><glyph glyph-name="yacute" unicode="ý" d="" /><glyph glyph-name="Thorn" unicode="þ" d="M662 335 q0 -121 -86 -207 q-86 -86 -208 -86 l-124 0 l0 -42 l-213 0 l0 684 l213 0 l0 -56 l124 0 q122 0 208 -85.5 q86 -85.5 86 -207.5 ZM449 335 q0 34 -23.5 57.5 q-23.5 23.5 -57.5 23.5 l-124 0 l0 -162 l124 0 q34 0 57.5 24 q23.5 24 23.5 57 Z" /><glyph glyph-name="thorn" unicode="þ" d="M662 335 q0 -121 -86 -207 q-86 -86 -208 -86 l-124 0 l0 -42 l-213 0 l0 684 l213 0 l0 -56 l124 0 q122 0 208 -85.5 q86 -85.5 86 -207.5 ZM449 335 q0 34 -23.5 57.5 q-23.5 23.5 -57.5 23.5 l-124 0 l0 -162 l124 0 q34 0 57.5 24 q23.5 24 23.5 57 Z" /><glyph glyph-name="minus" unicode="&#x2212;" d="" /><glyph glyph-name="multiply" unicode="×" d="" /><glyph glyph-name="onesuperior" unicode="¹" d="M162 340 l-106 0 l0 236 l-48 0 l0 106 l154 0 l0 -342 Z" /><glyph glyph-name="twosuperior" unicode="²" d="M293 340 l-259 0 q35 52 69 103.5 q34 51.5 68 103.5 q1 1 1.5 2.5 q0.5 1.5 0.5 3.5 q1 1 1 2.5 q0 1.5 0 2.5 q0 11 -8 19 q-8 8 -19 8 q-11 0 -19 -8 q-8 -8 -8 -19 l-106 0 q0 55 39 94 q39 39 94 39 q57 0 95 -40.5 q38 -40.5 38 -93.5 q0 -4 -0.5 -8.5 q-0.5 -4.5 -0.5 -8.5 q-1 -5 -2 -9 q-1 -4 -2 -9 q-5 -16 -14 -31 q-9 -15 -18 -30 q-3 -3 -5.5 -7 q-2.5 -4 -5.5 -8 l61 0 l0 -106 Z" /><glyph glyph-name="threesuperior" unicode="³" d="M207 453 q0 -46 -33 -79.5 q-33 -33.5 -80 -33.5 q-20 0 -40.5 0 q-20.5 0 -40.5 0 l0 106 l81 0 q4 0 5.5 2.5 q1.5 2.5 1.5 5.5 q-1 2 -2.5 4 q-1.5 2 -4.5 2 l-57 0 l0 106 l53 0 q2 0 3 1.5 q1 1.5 1 3.5 q0 0 0 0.5 q0 0.5 0 1.5 q-1 1 -1.5 2 q-0.5 1 -2.5 1 l-79 0 l0 106 q20 0 39.5 0 q19.5 0 39.5 0 q46 0 78.5 -32.5 q32.5 -32.5 32.5 -78.5 q0 -14 -3.5 -28 q-3.5 -14 -11.5 -26 q10 -13 15.5 -29.5 q5.5 -16.5 5.5 -34.5 Z" /><glyph glyph-name="onehalf" unicode="½" d="" /><glyph glyph-name="onequarter" unicode="¼" d="" /><glyph glyph-name="threequarters" unicode="¾" d="" /><glyph glyph-name="franc" unicode="&#x20a3;" d="" /><glyph glyph-name="Gbreve" unicode="&#x11e;" d="" /><glyph glyph-name="gbreve" unicode="&#x11f;" d="" /><glyph glyph-name="Idotaccent" unicode="&#x130;" d="" /><glyph glyph-name="Scedilla" unicode="&#x15e;" d="" /><glyph glyph-name="scedilla" unicode="&#x15f;" d="" /><glyph glyph-name="Cacute" unicode="&#x106;" d="" /><glyph glyph-name="cacute" unicode="&#x107;" d="" /><glyph glyph-name="Ccaron" unicode="&#x10c;" d="" /><glyph glyph-name="ccaron" unicode="&#x10d;" d="" /><glyph glyph-name="dcroat" unicode="&#x111;" d="" /><glyph glyph-name="arrowright" unicode="&#x2192;" d="" /><glyph glyph-name="house" unicode="&#x2302;" d="" /><glyph glyph-name="endash.001" unicode="&#x2013;" d="M446 280 l-424 0 l0 145 l424 0 l0 -145 Z" /><glyph glyph-name="sfthyphen" unicode="­" d="" /><glyph glyph-name="filledbox" unicode="&#x25a0;" d="" /><glyph glyph-name="bullet" unicode="&#x2022;" d="M458 334 q0 -90 -64 -154 q-64 -64 -154 -64 q-90 0 -154 64 q-64 64 -64 154 q0 90 64 154 q64 64 154 64 q90 0 154 -64 q64 -64 64 -154 Z" /><glyph glyph-name="overstore" unicode="¯" d="" /><glyph glyph-name="degree" unicode="°" d="" /><glyph glyph-name="periodcentered" unicode="·" d="" /><glyph glyph-name="underscoredbl" unicode="&#x2017;" d="" /><glyph glyph-name="exclamdbl" unicode="&#x203c;" d="" /><glyph glyph-name="nsuperior" unicode="&#x207f;" d="" /><glyph glyph-name="peseta" unicode="&#x20a7;" d="" /><glyph glyph-name="Gamma" unicode="&#x393;" d="" /><glyph glyph-name="Theta" unicode="&#x398;" d="" /><glyph glyph-name="Phi" unicode="&#x3a6;" d="" /><glyph glyph-name="alpha" unicode="&#x3b1;" d="" /><glyph glyph-name="delta" unicode="&#x3b4;" d="" /><glyph glyph-name="epsilon" unicode="&#x3b5;" d="" /><glyph glyph-name="sigma" unicode="&#x3c3;" d="" /><glyph glyph-name="tau" unicode="&#x3c4;" d="" /><glyph glyph-name="phi" unicode="&#x3c6;" d="" /><glyph glyph-name="arrowleft" unicode="&#x2190;" d="" /><glyph glyph-name="arrowup" unicode="&#x2191;" d="" /><glyph glyph-name="arrowdown" unicode="&#x2193;" d="" /><glyph glyph-name="arrowboth" unicode="&#x2194;" d="" /><glyph glyph-name="arrowupdn" unicode="&#x2195;" d="" /><glyph glyph-name="arrowupdnbase" unicode="&#x21a8;" d="" /><glyph glyph-name="orthogonal" unicode="&#x221f;" d="" /><glyph glyph-name="intersection" unicode="&#x2229;" d="" /><glyph glyph-name="equivalence" unicode="&#x2261;" d="" /><glyph glyph-name="revlogicalnot" unicode="&#x2310;" d="" /><glyph glyph-name="integraltp" unicode="&#x2320;" d="" /><glyph glyph-name="integralbt" unicode="&#x2321;" d="" /><glyph glyph-name="filledrect" unicode="&#x25ac;" d="" /><glyph glyph-name="circle" unicode="&#x25cb;" d="" /><glyph glyph-name="triagup" unicode="&#x25b2;" d="" /><glyph glyph-name="triagrt" unicode="&#x25ba;" d="" /><glyph glyph-name="triagdn" unicode="&#x25bc;" d="" /><glyph glyph-name="triaglf" unicode="&#x25c4;" d="" /><glyph glyph-name="invbullet" unicode="&#x25d8;" d="" /><glyph glyph-name="invcircle" unicode="&#x25d9;" d="" /><glyph glyph-name="Rcaron" unicode="&#x158;" d="" /><glyph glyph-name="upblock" unicode="&#x2580;" d="" /><glyph glyph-name="dnblock" unicode="&#x2584;" d="" /><glyph glyph-name="block" unicode="&#x2588;" d="" /><glyph glyph-name="lfblock" unicode="&#x258c;" d="" /><glyph glyph-name="rtblock" unicode="&#x2590;" d="" /><glyph glyph-name="ltshade" unicode="&#x2591;" d="" /><glyph glyph-name="shade" unicode="&#x2592;" d="" /><glyph glyph-name="dkshade" unicode="&#x2593;" d="" /><glyph glyph-name="smileface" unicode="&#x263a;" d="" /><glyph glyph-name="invsmileface" unicode="&#x263b;" d="" /><glyph glyph-name="sun" unicode="&#x263c;" d="" /><glyph glyph-name="female" unicode="&#x2640;" d="" /><glyph glyph-name="male" unicode="&#x2642;" d="" /><glyph glyph-name="spade" unicode="&#x2660;" d="" /><glyph glyph-name="club" unicode="&#x2663;" d="" /><glyph glyph-name="heart" unicode="&#x2665;" d="" /><glyph glyph-name="diamond" unicode="&#x2666;" d="" /><glyph glyph-name="musicalnote" unicode="&#x266a;" d="" /><glyph glyph-name="musicalnotedbl" unicode="&#x266b;" d="" /><glyph glyph-name="Abreve" unicode="&#x102;" d="" /><glyph glyph-name="abreve" unicode="&#x103;" d="" /><glyph glyph-name="Aogonek" unicode="&#x104;" d="" /><glyph glyph-name="aogonek" unicode="&#x105;" d="" /><glyph glyph-name="Dcaron" unicode="&#x10e;" d="" /><glyph glyph-name="dcaron" unicode="&#x10f;" d="" /><glyph glyph-name="Dslash" unicode="&#x110;" d="" /><glyph glyph-name="Eogonek" unicode="&#x118;" d="" /><glyph glyph-name="eogonek" unicode="&#x119;" d="" /><glyph glyph-name="Ecaron" unicode="&#x11a;" d="" /><glyph glyph-name="ecaron" unicode="&#x11b;" d="" /><glyph glyph-name="Lacute" unicode="&#x139;" d="" /><glyph glyph-name="lacute" unicode="&#x13a;" d="" /><glyph glyph-name="Lcaron" unicode="&#x13d;" d="" /><glyph glyph-name="lcaron" unicode="&#x13e;" d="" /><glyph glyph-name="Nacute" unicode="&#x143;" d="" /><glyph glyph-name="nacute" unicode="&#x144;" d="" /><glyph glyph-name="Ncaron" unicode="&#x147;" d="" /><glyph glyph-name="ncaron" unicode="&#x148;" d="" /><glyph glyph-name="Odblacute" unicode="&#x150;" d="" /><glyph glyph-name="odblacute" unicode="&#x151;" d="" /><glyph glyph-name="Racute" unicode="&#x154;" d="" /><glyph glyph-name="racute" unicode="&#x155;" d="" /><glyph glyph-name="rcaron" unicode="&#x159;" d="" /><glyph glyph-name="Sacute" unicode="&#x15a;" d="" /><glyph glyph-name="sacute" unicode="&#x15b;" d="" /><glyph glyph-name="Tcedilla" unicode="&#x162;" d="" /><glyph glyph-name="tcedilla" unicode="&#x163;" d="" /><glyph glyph-name="Tcaron" unicode="&#x164;" d="" /><glyph glyph-name="tcaron" unicode="&#x165;" d="" /><glyph glyph-name="Uring" unicode="&#x16e;" d="" /><glyph glyph-name="uring" unicode="&#x16f;" d="" /><glyph glyph-name="Udblacute" unicode="&#x171;" d="" /><glyph glyph-name="udblacute" unicode="&#x170;" d="" /><glyph glyph-name="Zacute" unicode="&#x179;" d="" /><glyph glyph-name="zacute" unicode="&#x17a;" d="" /><glyph glyph-name="Zdot" unicode="&#x17b;" d="" /><glyph glyph-name="zdot" unicode="&#x17c;" d="" /><glyph glyph-name="Ldot" unicode="&#x13f;" d="" /><glyph glyph-name="ldot" unicode="&#x140;" d="" /><glyph glyph-name=".notdef" unicode="&#x2500;" d="" /><glyph glyph-name=".notdef" unicode="&#x2502;" d="" /><glyph glyph-name=".notdef" unicode="&#x250c;" d="" /><glyph glyph-name=".notdef" unicode="&#x2510;" d="" /><glyph glyph-name=".notdef" unicode="&#x2514;" d="" /><glyph glyph-name=".notdef" unicode="&#x2518;" d="" /><glyph glyph-name=".notdef" unicode="&#x251c;" d="" /><glyph glyph-name=".notdef" unicode="&#x2524;" d="" /><glyph glyph-name=".notdef" unicode="&#x252c;" d="" /><glyph glyph-name=".notdef" unicode="&#x2534;" d="" /><glyph glyph-name=".notdef" unicode="&#x253c;" d="" /><glyph glyph-name=".notdef" unicode="&#x2550;" d="" /><glyph glyph-name=".notdef" unicode="&#x2551;" d="" /><glyph glyph-name=".notdef" unicode="&#x2552;" d="" /><glyph glyph-name=".notdef" unicode="&#x2553;" d="" /><glyph glyph-name=".notdef" unicode="&#x2554;" d="" /><glyph glyph-name=".notdef" unicode="&#x2555;" d="" /><glyph glyph-name=".notdef" unicode="&#x2556;" d="" /><glyph glyph-name=".notdef" unicode="&#x2557;" d="" /><glyph glyph-name=".notdef" unicode="&#x2558;" d="" /><glyph glyph-name=".notdef" unicode="&#x2559;" d="" /><glyph glyph-name=".notdef" unicode="&#x255a;" d="" /><glyph glyph-name=".notdef" unicode="&#x255b;" d="" /><glyph glyph-name=".notdef" unicode="&#x255c;" d="" /><glyph glyph-name=".notdef" unicode="&#x255d;" d="" /><glyph glyph-name=".notdef" unicode="&#x255e;" d="" /><glyph glyph-name=".notdef" unicode="&#x255f;" d="" /><glyph glyph-name=".notdef" unicode="&#x2560;" d="" /><glyph glyph-name=".notdef" unicode="&#x2561;" d="" /><glyph glyph-name=".notdef" unicode="&#x2562;" d="" /><glyph glyph-name=".notdef" unicode="&#x2563;" d="" /><glyph glyph-name=".notdef" unicode="&#x2564;" d="" /><glyph glyph-name=".notdef" unicode="&#x2565;" d="" /><glyph glyph-name=".notdef" unicode="&#x2566;" d="" /><glyph glyph-name=".notdef" unicode="&#x2567;" d="" /><glyph glyph-name=".notdef" unicode="&#x2568;" d="" /><glyph glyph-name=".notdef" unicode="&#x2569;" d="" /><glyph glyph-name=".notdef" unicode="&#x256a;" d="" /><glyph glyph-name=".notdef" unicode="&#x256b;" d="" /><glyph glyph-name=".notdef" unicode="&#x256c;" d="" /></font>
</defs>
</svg>
