<svg xmlns="http://www.w3.org/2000/svg" width="96" height="96" viewBox="0 0 96 96"><path fill-rule="evenodd" clip-rule="evenodd" fill="#27A5B3" d="M15.407 17.404h66.557c7.425 0 13.446 5.557 13.446 12.407v37.224c0 6.85-6.02 12.407-13.446 12.407H76.72s14.763 15.11 11.698 13.817l-.176-.075-.53-.224-.576-.243-.515-.217-.183-.077-.695-.293-.15-.063-1.648-.696-.66-.28-2.492-1.05-.28-.118-5.85-2.47-.252-.107-2.4-1.013-.814-.344-.496-.21-.684-.288-4.585-1.937-.708-.298-2.673-1.13-.865-.363-2.592-1.096-1.448-.61-.384-.163-.685-.288-.086-.037-.167-.07-.085-.035-.043-.02H15.407c-7.425 0-13.447-5.556-13.447-12.406V29.81c0-6.85 6.022-12.406 13.447-12.406z"/></svg>